<?xml version="1.0" encoding="utf-8"?>
<!-- Generator: Adobe Illustrator 23.0.2, SVG Export Plug-In . SVG Version: 6.00 Build 0)  -->
<svg version="1.1" id="Capa_1" xmlns="http://www.w3.org/2000/svg" xmlns:xlink="http://www.w3.org/1999/xlink" x="0px" y="0px"
	 viewBox="0 0 221.8 212.3" style="enable-background:new 0 0 221.8 212.3;" xml:space="preserve">
<style type="text/css">
	.st0{fill:#8C8C8C;}
	.st1{fill:#679963;}
	.st2{fill:#3C6937;}
	.st3{fill:#FFFFFF;}
	.st4{fill:#243E21;}
	.st5{fill:#2E4F2A;}
	.st6{fill:#79B474;}
	.st7{opacity:0.38;fill:#243E21;enable-background:new    ;}
	.st8{opacity:0.53;}
	.st9{opacity:0.53;fill:#FFFFFF;enable-background:new    ;}
	.st10{fill:none;}
	.st11{fill:#F7F7EB;}
	.st12{fill:#244122;}
	.st13{opacity:0.37;}
	.st14{fill:#4AB8D1;}
	.st15{fill:#497889;}
	.st16{opacity:0.9;}
	.st17{opacity:0.63;}
	.st18{opacity:0.63;fill:#A7A7A7;enable-background:new    ;}
	.st19{clip-path:url(#SVGID_2_);}
	.st20{fill:#A7A7A7;}
	.st21{clip-path:url(#SVGID_4_);}
	.st22{fill:#676868;}
	.st23{clip-path:url(#SVGID_6_);}
	.st24{fill:#949494;}
	.st25{clip-path:url(#SVGID_8_);}
	.st26{clip-path:url(#SVGID_10_);}
	.st27{clip-path:url(#SVGID_12_);}
	.st28{clip-path:url(#SVGID_14_);}
	.st29{clip-path:url(#SVGID_16_);}
</style>
<g id="ARTBOARD_2">
</g>
<g>
	<g>
		<path class="st0" d="M133.2,90.4L133.2,90.4L133.2,90.4L133.2,90.4z"/>
		<path class="st0" d="M131.2,90.4L131.2,90.4L131.2,90.4L131.2,90.4z"/>
		<path class="st0" d="M123,90.6L123,90.6c-0.1,0-0.1,0-0.1,0s0,0-0.1,0l0,0c-0.9-0.1-1.8-0.3-2.7-0.5c-0.8-0.3-1.5-0.6-2.2-1.1l0,0
			c-0.1-0.1-0.3-0.2-0.4-0.3c0.6-0.5,1.1-1,1.5-1.7s0.8-1.4,0.9-2.2c0.2-0.8,0.2-1.6,0-2.4c-0.1-0.4-0.2-0.8-0.3-1.2
			c-0.1-0.3-0.3-0.6-0.5-0.8c-0.2-0.2-0.4-0.4-0.6-0.6c-0.2-0.2-0.5-0.3-0.7-0.4c-1-0.3-2.2,0.2-2.9,0.9c-0.9,0.9-1.3,2.3-1.2,3.5
			c0.1,1.6,0.8,3.2,1.8,4.4c0.1,0.1,0.1,0.2,0.2,0.2c-0.1,0-0.1,0.1-0.2,0.1c-0.5,0.2-1,0.4-1.5,0.5s-0.9,0.1-1.4,0.1
			c-0.5-0.1-1-0.2-1.6-0.3l0,0l0,0c0,0,0,0-0.1,0l0,0c-0.5-0.2-1.1-0.4-1.5-0.8c-0.4-0.3-0.7-0.6-1.1-0.9c-0.4-0.4-0.7-0.9-0.9-1.4
			c-0.3-0.7-0.6-1.5-0.7-2.3c-0.2-0.8-0.2-1.5-0.3-2.3c-0.1-1.4-0.1-2.8,0-4.2c0-1.3,0.1-2.7,0.1-4c-0.1-3.3-0.9-6.5-2.5-9.4
			c-0.4-0.8-0.9-1.5-1.5-2.1c-0.5-0.7-1.1-1.3-1.8-1.8l-0.1-0.1c-0.2-1-0.5-1.9-0.8-2.9c-0.5-1.3-1-2.6-1.6-3.8
			C96.5,49,94.8,45.1,94,41l0,0c-0.4-1.9-0.6-3.9-0.4-5.9c0.1-1.5,0.4-2.9,0.9-4.3c0.4-1,0.8-2,1.4-3l0,0c0,0,0,0,0-0.1l0,0l0,0l0,0
			c0,0,0,0,0-0.1l0,0c0.5-0.8,1.2-1.5,1.9-2.2c1.1-1,2.4-1.8,3.7-2.4c1.4-0.7,2.9-1.2,4.4-1.5c1.2-0.2,2.4-0.4,3.6-0.3h-0.1
			c0,0,0,0,0.1,0l0,0c0.8,0.1,1.6,0.2,2.4,0.5l0,0c0.1,0.1,0.3,0.1,0.4,0.2l0,0c-0.2,0.3-0.4,0.6-0.5,1c-0.1,0.3-0.2,0.7-0.2,1
			s0,0.7,0.2,1c0.1,0.2,0.2,0.3,0.3,0.5s0.3,0.4,0.5,0.5c0.1,0.1,0.7,0.3,0.9,0.2c0,0,2.4-3.7,3.9-4.9c0.1-0.1,0-0.5-0.1-0.7
			c-0.2-0.2-0.4-0.4-0.6-0.5c-0.2-0.1-0.5-0.2-0.8-0.2c-0.1,0-0.2,0-0.3,0c-0.5,0-1.1,0.3-1.5,0.6c-0.3,0.2-0.6,0.4-0.8,0.7
			c-0.1,0-0.1-0.1-0.2-0.1c-0.5-0.2-1-0.4-1.6-0.5c-1.1-0.3-2.3-0.3-3.4-0.3H108c-2.4,0.2-4.7,0.8-6.8,1.9c-1.4,0.7-2.7,1.5-3.9,2.5
			c-1.1,0.9-2,2-2.7,3.2c-0.5,0.9-0.9,1.9-1.2,2.9c-0.3,1-0.6,2-0.7,3c-0.3,2-0.2,4.1,0.1,6.1c0.6,4.1,2.2,8.1,3.9,11.9
			c0.4,0.9,0.8,1.9,1.3,2.8c0.2,0.5,0.5,1,0.7,1.6c0.3,0.8,0.6,1.6,0.8,2.4c-0.9-0.5-1.9-0.9-3-1.1c-0.8-0.1-1.7-0.1-2.5,0
			c-0.8,0.2-1.5,0.5-2.1,1.1c-0.3,0.3-0.6,0.7-0.8,1.1c-0.2,0.4-0.4,0.8-0.4,1.2c-0.2,0.8-0.1,1.6,0.2,2.4c0.3,0.7,0.8,1.4,1.4,1.9
			c0.6,0.6,1.4,1,2.2,1.2c0.8,0.3,1.6,0.4,2.4,0.3c0.7-0.1,1.3-0.2,1.9-0.5c0.5-0.3,1-0.6,1.4-1.1c0.4-0.4,0.6-0.9,0.8-1.5
			c0.2-0.5,0.2-1.1,0.2-1.7c0-0.3,0-0.5,0-0.8c0.2,0.2,0.3,0.3,0.5,0.5c0.8,1,1.5,2,2.1,3.2l0,0c0.7,1.5,1.3,3.1,1.6,4.7l0,0
			c0.2,0.9,0.3,1.8,0.3,2.8c0,0.8,0,1.6,0,2.3c0,1.7-0.1,3.4-0.1,5.2c0,1.4,0.1,2.8,0.4,4.1c0.1,0.6,0.3,1.2,0.6,1.8
			c0.3,0.6,0.6,1.1,1,1.6s0.9,1,1.4,1.3c0.6,0.4,1.2,0.7,1.9,1c0.4,0.1,0.8,0.3,1.2,0.3c0.4,0.1,0.8,0.1,1.2,0.1
			c0.8,0,1.6-0.1,2.3-0.4c0.5-0.2,0.9-0.4,1.3-0.7c0.9,0.7,1.9,1.3,2.9,1.7c0.8,0.3,1.6,0.5,2.4,0.6c0.4,0.1,0.9,0.1,1.3,0.1
			c0-0.1-0.1-0.2-0.1-0.3C123.2,91.2,123.1,90.9,123,90.6z M99.9,62.6c0,0.4-0.1,0.8-0.2,1.2c-0.1,0.3-0.2,0.5-0.4,0.8
			c-0.1,0.2-0.3,0.4-0.4,0.5c-0.2,0.2-0.4,0.3-0.6,0.4c-0.3,0.2-0.7,0.3-1,0.3c-0.2,0-0.5,0.1-0.7,0.1s-0.4,0-0.6,0
			c-0.4,0-0.8-0.1-1.3-0.3c-0.4-0.2-0.8-0.4-1.2-0.6c-0.3-0.2-0.6-0.5-0.9-0.8c-0.2-0.3-0.4-0.6-0.6-0.9c-0.1-0.3-0.2-0.5-0.3-0.8
			c0-0.2-0.1-0.5-0.1-0.7c0-0.3,0.1-0.5,0.2-0.7c0.1-0.3,0.2-0.5,0.4-0.8c0.2-0.2,0.3-0.4,0.6-0.6c0.2-0.2,0.4-0.3,0.7-0.5
			c0.3-0.1,0.6-0.2,0.9-0.3c0.4-0.1,0.9-0.1,1.4-0.1c0.7,0.1,1.3,0.2,1.9,0.4c0.7,0.2,1.3,0.6,1.9,1c0.1,0.1,0.2,0.1,0.3,0.2
			C99.9,61.1,99.9,61.8,99.9,62.6z M116.8,88c-0.1-0.1-0.2-0.2-0.3-0.3c-0.4-0.4-0.7-0.9-0.9-1.4s-0.4-1-0.6-1.6
			c-0.1-0.4-0.1-0.9-0.1-1.3c0-0.3,0.1-0.7,0.2-1c0.1-0.3,0.2-0.5,0.4-0.8c0.1-0.2,0.3-0.4,0.5-0.6c0.2-0.1,0.3-0.2,0.5-0.3
			c0.1-0.1,0.3-0.1,0.5-0.2c0.1,0,0.3,0,0.4,0c0.1,0,0.2,0,0.3,0.1c0.1,0,0.2,0.1,0.3,0.2s0.2,0.2,0.3,0.3c0.1,0.2,0.2,0.3,0.3,0.5
			c0.2,0.3,0.3,0.7,0.3,1c0.1,0.4,0.1,0.9,0.1,1.3s-0.1,0.9-0.3,1.3c-0.2,0.5-0.4,0.9-0.7,1.3c-0.3,0.5-0.7,0.9-1.1,1.3
			C116.9,87.8,116.9,87.9,116.8,88z"/>
		<path class="st0" d="M119.1,93.1L119.1,93.1C119.1,93.1,119.1,93,119.1,93.1C119.1,93,119.1,93,119.1,93.1z"/>
		<path class="st0" d="M130.8,94.7L130.8,94.7L130.8,94.7L130.8,94.7z"/>
	</g>
	<g>
		<g>
			<path class="st1" d="M138.9,107c0.1,0,0.3,0,0.5,0.1c0.8,0.3,1.8,0.7,2.3,1.2c0.8,0.8,1.4,2.1,2,3c1.4,2.2,2,4.4,3.7,6.4
				c1.8,2.1,6,1.1,8.5,0.4c3.3-1,6.3-1.9,9.5-0.2c2.9,1.6,4.3,4.5,3.9,7.8c-0.2,1.8-1,6.4-3.3,5.8c-3.6-1-0.9-6.3-3.2-8.1
				c-2.3-1.8-7.9,3.4-9.9,4.7c-1.3,0.9-3,1.6-4.4,2.2c-2.2,1-3.7,1-5.9-0.2c-2-1.1-3.8-2.2-5.3-3.8c-1.7-1.9-3.1-4-4.7-6
				c-0.8-1-1.7-2-2.1-3.2L138.9,107z"/>
			<g>
				<g>
					<path class="st1" d="M95.3,164.6c8.6-8.4,20.3-13.3,21.4-26.8c0.5-6.2-1.2-12.4-4.1-17.9l-3.9-7.4l-40,18.1l1.8,5.1
						c1.6,3.9,3.3,7.9,4.9,11.8c2.4,5.8,8.2,12.3,2.1,17.3c-3.8,3.1-9.3,6.1-5.8,11.7c0.1,0.1,9.7,15.4,9.7,15.4
						c2,3.2,4.5,6.5,7.8,7.6c0.1,0.2,0.4,0.3,0.7,0.4c2.2,0.6,7.1,0.3,8.3,0.3c3.4,0,10.9,1.3,12.1-3.4c0.3-1.2,0.4-2.4,0.3-3.6
						c0-0.1,0-0.1,0-0.2c0.1-0.8-0.3-2.2-0.7-2.9c-0.9-1.6-3.4-2.6-5.2-2.5c-1.8,0.5-4.3,1.6-5.7,1.6c-1.2,0-2.4-0.5-3.5-1
						c-4.7-2.4-8.6-8.1-8.1-13.6C87.7,169.9,92.4,167.5,95.3,164.6z"/>
					<g>
						<path class="st2" d="M104.9,190.4c0.5-0.2,1.1-0.2,1.6,0c0.6,0.2,1,0.6,1.4,1c0.7,0.9,0.9,2.1,0.7,3.1c-0.3-1-0.7-2-1.3-2.7
							C106.8,191.1,106,190.6,104.9,190.4z"/>
					</g>
					<g>
						<path class="st2" d="M106.2,188.9c0.5-0.2,1.1-0.2,1.6,0c0.6,0.2,1,0.6,1.4,1c0.7,0.9,0.9,2.1,0.7,3.1c-0.3-1-0.7-2-1.3-2.7
							C108.1,189.5,107.3,189,106.2,188.9z"/>
					</g>
				</g>
				<g>
					<g>
						<g>
							<path class="st3" d="M191.5,73.1c0,0.4-0.6,0.6-0.9,0.3l-1.9-2.4l-2.3-2.8c-0.2-0.3-0.1-0.7,0.2-0.8l2.3-0.7l2.3-0.7
								c0.3-0.1,0.6,0.1,0.6,0.5l-0.2,3.6L191.5,73.1z"/>
							<path class="st3" d="M186.6,75c0,0.4-0.6,0.6-0.9,0.3l-1.9-2.4l-2.3-2.8c-0.2-0.3-0.1-0.7,0.2-0.8l2.3-0.7l2.3-0.7
								c0.3-0.1,0.6,0.1,0.6,0.5l-0.1,3.6L186.6,75z"/>
							<path class="st3" d="M180.9,76.1c0,0.4-0.6,0.6-0.9,0.3l-1.9-2.4l-2.3-2.8c-0.2-0.3-0.1-0.7,0.2-0.8l2.3-0.7l2.3-0.7
								c0.3-0.1,0.6,0.1,0.6,0.5l-0.2,3.6L180.9,76.1z"/>
							<g>
								<path class="st3" d="M175,77.2c-0.1,0.4-0.7,0.5-0.9,0.1l-1.4-2.7l-1.7-3.2c-0.2-0.3,0-0.7,0.4-0.7l2.3-0.3l2.3-0.3
									c0.3,0,0.6,0.3,0.5,0.6l-0.9,3.5L175,77.2z"/>
								<path class="st3" d="M170.1,79c-0.1,0.4-0.7,0.5-0.9,0.1l-1.4-2.7l-1.7-3.2c-0.2-0.3,0-0.7,0.4-0.7l2.3-0.3l2.3-0.3
									c0.3,0,0.6,0.3,0.5,0.6l-0.9,3.5L170.1,79z"/>
								<path class="st3" d="M164.9,78.5c-0.1,0.4-0.7,0.5-0.9,0.1l-1.4-2.7l-1.7-3.2c-0.2-0.3,0-0.7,0.4-0.7l2.3-0.3l2.3-0.3
									c0.3,0,0.6,0.3,0.5,0.6l-0.9,3.5L164.9,78.5z"/>
								<path class="st3" d="M159.4,78c-0.1,0.4-0.7,0.5-0.9,0.1l-1.4-2.7l-1.7-3.2c-0.2-0.3,0-0.7,0.4-0.7l2.3-0.3l2.3-0.3
									c0.3,0,0.6,0.3,0.5,0.6L160,75L159.4,78z"/>
							</g>
							<path class="st3" d="M196.2,71c0,0.4-0.6,0.6-0.9,0.3l-1.8-2.4l-2.2-2.9c-0.2-0.3-0.1-0.7,0.3-0.8l2.3-0.7l2.3-0.7
								c0.3-0.1,0.6,0.2,0.6,0.5l-0.3,3.6L196.2,71z"/>
							<path class="st3" d="M200.7,70.1c0,0.4-0.6,0.6-0.9,0.3L198,68l-2.2-2.9c-0.2-0.3-0.1-0.7,0.3-0.8l2.3-0.7l2.3-0.7
								c0.3-0.1,0.6,0.2,0.6,0.5L201,67L200.7,70.1z"/>
						</g>
						<g>
							<path class="st3" d="M182.3,83.9c0-0.4-0.5-0.7-0.8-0.4l-2.2,2.1l-2.6,2.5c-0.2,0.2-0.2,0.6,0.1,0.8l2.1,1l2.1,1
								c0.3,0.1,0.7,0,0.7-0.4l0.3-3.6L182.3,83.9z"/>
							<path class="st3" d="M178,82.5c0-0.4-0.5-0.7-0.8-0.4l-2.2,2.1l-2.6,2.5c-0.2,0.2-0.2,0.6,0.1,0.8l2.1,1l2.1,1
								c0.3,0.1,0.7,0,0.7-0.4l0.3-3.6L178,82.5z"/>
							<path class="st3" d="M173.8,79.8c0-0.4-0.5-0.7-0.8-0.4l-2.2,2.1l-2.6,2.5c-0.2,0.2-0.2,0.6,0.1,0.8l2.1,1l2.1,1
								c0.3,0.1,0.7,0,0.7-0.4l0.3-3.6L173.8,79.8z"/>
							<path class="st3" d="M168.2,77c0-0.4-0.6-0.6-0.9-0.2l-1.8,2.4l-2.1,2.9c-0.2,0.3-0.1,0.7,0.3,0.7l2.3,0.6l2.3,0.6
								c0.3,0.1,0.6-0.2,0.6-0.5l-0.3-3.6L168.2,77z"/>
							<path class="st3" d="M163.7,74.5c0-0.4-0.6-0.6-0.9-0.2l-1.8,2.4l-2.1,2.9c-0.2,0.3-0.1,0.7,0.3,0.7l2.3,0.6l2.3,0.6
								c0.3,0.1,0.6-0.2,0.6-0.5l-0.3-3.6L163.7,74.5z"/>
							<path class="st3" d="M186.3,84.2c0-0.4-0.6-0.6-0.9-0.2l-1.8,2.5l-2.1,2.9c-0.2,0.3-0.1,0.7,0.3,0.7l2.3,0.6l2.3,0.6
								c0.3,0.1,0.6-0.2,0.6-0.5l-0.4-3.6L186.3,84.2z"/>
							<path class="st3" d="M191.7,84.2c0-0.4-0.6-0.6-0.9-0.2l-1.8,2.5l-2.1,2.9c-0.2,0.3-0.1,0.7,0.3,0.7l2.3,0.6l2.3,0.6
								c0.3,0.1,0.6-0.2,0.6-0.5l-0.4-3.6L191.7,84.2z"/>
						</g>
					</g>
					<g>
						<g>
							<g>
								<g>
									<path class="st4" d="M110.8,79.3l1.6,2.4l1.6,2.4c0.6,0.9,2,0.9,2.6-0.2l1.3-2.6l0,0l-7.1-3.5
										C110.5,78.3,110.5,78.8,110.8,79.3z"/>
									<path class="st5" d="M117.7,76.7l-2.9,0.2l-2.9,0.2c-0.6,0-1,0.4-1.3,0.9l7.1,3.5l1.3-2.6
										C119.6,77.8,118.8,76.6,117.7,76.7z"/>
								</g>
								<g>
									<path class="st4" d="M116.7,61.5l1.8,2.2l1.8,2.2c0.7,0.9,2.1,0.7,2.5-0.4l1-2.7l0,0l-7.4-2.8
										C116.3,60.6,116.4,61.1,116.7,61.5z"/>
									<path class="st5" d="M123.3,58.2l-2.8,0.5l-2.8,0.5c-0.6,0.1-1,0.5-1.2,1l7.4,2.8l1-2.7C125.3,59.1,124.4,58,123.3,58.2z"
										/>
								</g>
								<g>
									<path class="st4" d="M66,102.5l-1.5,2.9l-1.5,2.9c-0.6,1.2,0.3,2.5,1.6,2.5l3.3-0.2l0,0l-0.5-9
										C66.8,101.6,66.3,101.9,66,102.5z"/>
									<path class="st5" d="M72.5,107.8l-1.8-2.8l-1.8-2.8c-0.4-0.6-1-0.8-1.6-0.8l0.5,9l3.3-0.2
										C72.4,110.4,73.2,108.9,72.5,107.8z"/>
								</g>
								<g>
									<path class="st4" d="M82.7,95v3v3c0,1.2,1.3,1.9,2.3,1.4l2.6-1.5l0,0l-4.1-7.2C83,93.9,82.7,94.4,82.7,95z"/>
									<path class="st5" d="M90.1,96.7l-2.6-1.5l-2.6-1.5c-0.5-0.3-1.1-0.3-1.6,0l4.1,7.2l2.6-1.5C91.1,98.8,91.2,97.3,90.1,96.7z
										"/>
								</g>
								<g>
									<path class="st4" d="M100.1,87.9l-0.5,2.9l-0.5,2.9c-0.2,1.2,0.9,2.1,2,1.7l2.8-1l0,0l-2.8-7.7
										C100.6,87,100.2,87.4,100.1,87.9z"/>
									<path class="st5" d="M107.2,90.9l-2.3-1.9l-2.3-1.9c-0.5-0.4-1.1-0.5-1.6-0.3l2.8,7.7l2.8-1
										C107.8,93.1,108.1,91.7,107.2,90.9z"/>
								</g>
								<g>
									<path class="st4" d="M51.5,96.9l-2.9,1.8l-2.9,1.8c-1.2,0.7-1.1,2.4,0.1,3.1l3,1.7l0,0l4.5-8.3
										C52.7,96.6,52.1,96.6,51.5,96.9z"/>
									<path class="st5" d="M54.3,105.3l-0.1-3.4l-0.1-3.4c0-0.7-0.4-1.3-1-1.5l-4.5,8.3l3,1.7C52.9,107.5,54.4,106.6,54.3,105.3z
										"/>
								</g>
								<g>
									<path class="st4" d="M31.5,87.1l-2.7,2.1l-2.7,2.1c-1.1,0.8-0.8,2.5,0.4,3l3.2,1.3l0,0l3.5-8.8
										C32.7,86.6,32,86.7,31.5,87.1z"/>
									<path class="st5" d="M35.3,95l-0.5-3.4l-0.5-3.4c-0.1-0.7-0.6-1.2-1.1-1.4l-3.5,8.8l3.2,1.3C34.2,97.4,35.5,96.4,35.3,95z"
										/>
								</g>
								<g>
									<path class="st4" d="M12.6,84.3l-1.7,2.3l-1.7,2.3c-0.7,0.9-0.1,2.2,1,2.3l2.8,0.3l0,0l0.9-7.9
										C13.4,83.6,12.9,83.8,12.6,84.3z"/>
									<path class="st5" d="M17.4,89.8l-1.1-2.6l-1.1-2.6c-0.2-0.5-0.7-0.8-1.2-0.9l-0.9,7.9l2.8,0.3C17,92,17.9,90.9,17.4,89.8z"
										/>
								</g>
							</g>
							<g>
								<g>
									<path class="st6" d="M192.5,37c-0.4-0.1-0.9-0.2-1.3-0.3c-34.7-8.5-47-0.7-47-0.7c-0.5,0-1,0-1.4,0.1
										C123.6,37.2,125,54.4,125,54.4c-4.6,7.5-6.1,16.4-7.9,24.8c-0.8,3.7-1.7,8.2-5,10.4c-8.2,5.4-18.5,5.8-26.9,10.8
										c-7.4,4.4-12.5,12.6-22.3,10.1c-5.6-1.4-10.3-5.1-15.4-7.7C39,98.4,30.3,94.2,20.9,92c-4.9-1.2-16-5-20.4-1
										c-3.6,3.3,13.8,10.7,16.6,12.8c4.6,3.6,9,6.3,13.3,10.2c9.1,8.4,20.4,14.4,27.6,25.1c4.8,7.1,4.1,19.3,13.3,23.1
										c2,0.9,3.6,0.5,5.2-0.2c1.8-0.4,3.6-1.5,5.2-2.3c4.7-1.5,9.7-1.1,14.6-1.5c5.5-0.5,10.8-1.1,15.9-3.2
										c4.6-1.9,8.7-5.2,12.8-8.1c5-3.5,10.8-6.4,14.4-11.6c3.3-4.9,5.3-11,5.5-16.9c0.3-1.5,0.6-3.1,0.7-4.7
										c0.1-1.3,1.9-18.6,3.4-18.4c3.3,0.3,6.5,0.9,9.7,1.4c2.4,0.3,5,0.5,7.4,1c2.5,0.6,4.8,1.7,7.3,2.5c2.4,0.7,4.7,1.8,7.1,2.3
										c2.7,0.5,6.1,0.3,8.3-1.8c0.5-0.5,1.1-1.1,1.2-1.7c1.4-2.1,3-7.1,2.7-8.9c-10.2,0.5-17,0.1-25-6.6c-2.8-2.3-7.4-6-12.4-8.2
										c0.8,0.4,3.6-0.7,4.5-0.8c2-0.4,4-0.7,6-1.1c3-0.6,6.4-0.9,9.5-1.4c3.3-0.6,6.4-1.7,9.7-2.5c3.6-0.9,7.2-1.7,10.8-2.7
										c1.3-0.4,2.6-0.8,3.9-1.3c2.5-1,3.2-4,3.7-6.4c0.6-2.7,0.5-5.5-0.3-8.2c-1.3-4.6-4.4-8.4-7.9-11.5
										C194.3,38.3,193.4,37.6,192.5,37z"/>
									<g>
										<path class="st7" d="M145.2,94.2c0,0-2.4,7.4-2.7,8.1c-1.6,4.5-1.8,9.5-3.7,13.9c-1.8,4.2-5.2,7.3-7.7,11
											c-3.6,5.2-9.4,8.1-14.4,11.6c-4.1,2.9-8.2,6.2-12.8,8.1c-5.1,2.1-10.4,2.7-15.9,3.2c-4.8,0.4-9.9,0-14.6,1.5
											c-1.6,0.9-3.4,2-5.2,2.3c-1.4,0.6-2.7,0.9-4.3,0.5c1.5,3.3,3.6,6.1,7.2,7.6c2,0.9,3.6,0.5,5.2-0.2
											c1.8-0.4,3.6-1.5,5.2-2.3c4.7-1.5,9.7-1.1,14.6-1.5c5.5-0.5,10.8-1.1,15.9-3.2c4.6-1.9,8.7-5.2,12.8-8.1
											c5-3.5,10.8-6.4,14.4-11.6c3.3-4.9,5.3-11,5.5-16.9c0.3-1.5,0.6-3.1,0.7-4.7c0.1-1.2,1.7-16.3,3.1-18.2
											C148.5,95.3,145.5,94.3,145.2,94.2z"/>
										<g class="st8">
											<path class="st3" d="M112.2,143.6c0,0.7,0.3,1.3,0.6,1.9c0.3,0.6,0.7,1.1,1.1,1.6c0.9,1,1.8,2,2.8,3
												c-0.7-0.2-1.3-0.6-1.9-1c-0.6-0.4-1.1-0.9-1.6-1.5s-0.9-1.2-1.1-1.9C111.9,145.1,111.8,144.2,112.2,143.6z"/>
										</g>
										<g class="st8">
											<path class="st3" d="M121.4,137.4c0,0.7,0.3,1.3,0.6,1.9c0.3,0.6,0.7,1.1,1.1,1.6c0.9,1,1.8,2,2.8,3
												c-0.7-0.2-1.3-0.6-1.9-1c-0.6-0.4-1.1-0.9-1.6-1.5s-0.9-1.2-1.1-1.9S121,138,121.4,137.4z"/>
										</g>
										<g class="st8">
											<path class="st3" d="M140.9,111c0.3,0.3,0.6,0.5,1,0.6s0.8,0.2,1.2,0.2c0.8,0.1,1.6,0.2,2.5,0.2
												c-0.4,0.2-0.8,0.3-1.2,0.3c-0.4,0.1-0.9,0-1.3,0c-0.4-0.1-0.9-0.2-1.3-0.4C141.3,111.8,141,111.4,140.9,111z"/>
										</g>
										<g class="st8">
											<path class="st3" d="M142.5,102.6c0.3,0.3,0.6,0.4,0.9,0.6c0.3,0.1,0.7,0.2,1,0.3c0.7,0.1,1.4,0.2,2.2,0.3
												c-0.4,0.2-0.7,0.2-1.1,0.3c-0.4,0-0.8,0-1.2,0c-0.4-0.1-0.8-0.2-1.1-0.4C142.9,103.3,142.5,103,142.5,102.6z"/>
										</g>
									</g>
								</g>
								<g>
									<path class="st2" d="M150,95.3c-1.6,0.3-3.3,0-4.8-0.5s-3-1.3-4.3-2.3s-2.4-2.3-3.3-3.6c-0.9-1.3-1.6-2.7-2.4-4.1
										c1.2,1,2.2,2.3,3.3,3.4c1,1.2,2.1,2.2,3.3,3.1s2.5,1.7,3.8,2.4C147,94.4,148.4,95,150,95.3z"/>
								</g>
								<g>
									<g>
										<path class="st6" d="M86.1,176.9c8.6-8.4,20.3-13.3,21.4-26.8c0.5-6.2-1.2-12.4-4.1-17.9l-1.2-2.3c-1.5-2.9-5-4.1-8-2.8
											l-7.6,3.4c-6.9,3.1-13.7,6.2-20.6,9.3c-10.1,4.6-0.9,18.2,2.4,24.4c2,3.8,3.8,9.5-0.2,12.7c-3.8,3.1-9.3,6.1-5.8,11.7
											c0.1,0.1,9.7,15.4,9.7,15.4c2.3,3.6,5,7.2,8.9,7.9l0,0c2.2,0.6,7.1,0.3,8.3,0.3c3.4,0,10.9,1.3,12.1-3.4
											c0.6-2.5,0.5-5.3-1.3-7.2l-0.1-0.1c-0.1-0.1-0.1-0.1-0.2-0.2l0,0c-0.2-0.2-0.4-0.3-0.6-0.5c-1.5-1-3.5-1.2-5.2-0.6
											c-1.5,0.5-3.2,1.1-4.3,1.1c-1.2,0-2.4-0.5-3.5-1c-4.7-2.4-8.6-8.1-8.1-13.6C78.5,182.3,83.2,179.8,86.1,176.9z"/>
										<g>
											<path class="st2" d="M94.4,122.5c2-0.1,3.9,0.7,5.5,1.9c1.6,1.2,2.9,2.8,3.9,4.4c2.1,3.3,3.5,7.1,4.1,11
												s0.6,7.9-0.1,11.7c-0.3,1.9-0.9,3.8-1.7,5.6s-1.9,3.5-3.3,4.8c1.2-1.5,2.1-3.2,2.7-5c0.6-1.8,1-3.7,1.3-5.5
												c0.5-3.8,0.4-7.6-0.2-11.4c-0.3-1.9-0.7-3.7-1.3-5.5s-1.4-3.5-2.3-5.2c-0.9-1.6-2-3.2-3.4-4.5
												C98.1,123.6,96.4,122.7,94.4,122.5z"/>
										</g>
										<g>
											<path class="st2" d="M65.8,158.9c1.5,1.4,3.1,2.7,4.8,3.8c1.7,1.1,3.5,2,5.4,2.6s3.9,0.9,5.9,1s4-0.1,6.1-0.4
												c-1.9,0.9-4,1.4-6.1,1.5s-4.3-0.1-6.3-0.8s-3.9-1.7-5.6-3C68.3,162.3,66.9,160.7,65.8,158.9z"/>
										</g>
									</g>
									<g>
										<path class="st2" d="M95.1,203.1c0.5-0.2,1.1-0.2,1.6,0c0.6,0.2,1,0.6,1.4,1c0.7,0.9,0.9,2.1,0.7,3.1
											c-0.3-1-0.7-2-1.3-2.7C97,203.7,96.2,203.2,95.1,203.1z"/>
									</g>
									<g>
										<path class="st2" d="M97.3,201.6c0.5-0.2,1.1-0.2,1.6,0c0.6,0.2,1,0.6,1.4,1c0.7,0.9,0.9,2.1,0.7,3.1
											c-0.3-1-0.7-2-1.3-2.7C99.2,202.2,98.4,201.7,97.3,201.6z"/>
									</g>
								</g>
								<g>
									<path class="st9" d="M90.8,101.8c-0.7-1.3-2.6-2.1-4-2.3c-1.8-0.2-1.8,2-1,3.1c0.7,1,2.2,2.1,3.5,2S91.4,103.1,90.8,101.8
										C90.3,100.9,91.6,103.5,90.8,101.8z"/>
									<path class="st9" d="M97.4,97.1c-1.1-0.1-2.2-0.2-3.3-0.1c-0.5,0.1-1.1,0.2-1.4,0.7s-0.2,1.2,0.1,1.7
										c0.4,0.8,1.1,1.5,1.8,2.1c0.9,0.8,2,1.4,3.2,1.8c0.5,0.2,1,0.3,1.5,0.2c2-0.3,1.5-2.9,0.8-4.2c-0.3-0.5-0.6-1-1-1.3
										C98.6,97.6,98.1,97.2,97.4,97.1z"/>
									<path class="st9" d="M110.4,99.8c-1.4-0.2-6.2-0.5-4.6,2.4c0.9,1.7,3.4,3.5,5.3,3.9C115.5,107.2,113.6,100.3,110.4,99.8
										C110.3,99.8,112.7,100.1,110.4,99.8z"/>
									<path class="st9" d="M123.7,75.6c-0.5-0.6-2.2-1.9-3-1.8c-1.4,0.1,0,2.6,0.4,3.1c0.5,0.7,1.2,2,2.2,1.6
										C124.4,78.2,124.3,76.3,123.7,75.6C123,74.8,124.5,76.5,123.7,75.6z"/>
									<path class="st9" d="M126.1,66.6c-0.8-0.7-2.4,1.4-1.1,2.3C127.1,70.5,127.6,67.8,126.1,66.6
										C125.9,66.4,126.8,67.2,126.1,66.6z"/>
									<path class="st9" d="M121.5,82.1c-0.9-1.1-4.5-1.5-3.3,0.7C119.1,84.4,122.3,83.2,121.5,82.1
										C121,81.5,121.7,82.3,121.5,82.1z"/>
									<path class="st9" d="M30.2,98.1c1.2-1.3-2.3-1-2.7-1c-1.2,0.1-0.4,1.2,0.4,1.4C28.8,98.7,29.7,98.7,30.2,98.1
										C30.4,97.9,29.8,98.6,30.2,98.1z"/>
									<path class="st9" d="M133.9,56.9c-0.3-0.3-0.7-0.6-1.2-0.7c-0.5-0.1-1,0.1-1.3,0.5c-0.3,0.5-0.3,1.1-0.1,1.7
										c0.3,1.3,0.9,2.4,1.8,3.4c0.3,0.3,0.5,0.6,0.9,0.6c1.2,0.2,1.3-1.8,1.2-2.5c0-0.7-0.3-1.3-0.6-1.9
										C134.4,57.6,134.2,57.2,133.9,56.9z"/>
									<path class="st9" d="M71.6,113.3c-1.1-1.5-3.6,1.5-2.1,2.8c0.6,0.6,1.7,0.7,2.4,0.1C72.8,115.4,72.1,114.1,71.6,113.3
										C71.4,113.1,72,113.9,71.6,113.3z"/>
									<path class="st9" d="M79.7,113.9c0.2-4.7-5.3-2.9-4.9,0.8c0.1,1.1,1.2,4.8,2.7,4.6C79.2,119.1,79.6,115.2,79.7,113.9
										C79.7,112.6,79.6,115.6,79.7,113.9z"/>
									<path class="st9" d="M93.1,109.3c0.2-4.7-5.3-2.9-4.9,0.8c0.1,1.1,1.2,4.8,2.7,4.6C92.7,114.5,93.1,110.6,93.1,109.3
										C93.1,108.1,93,111,93.1,109.3z"/>
									<path class="st9" d="M61.9,112.1c0.5,0-8-0.3-3.4,3.5C59.9,119,63.6,112,61.9,112.1C61.4,112.2,62.4,112.1,61.9,112.1z"/>
									<path class="st9" d="M12,95.1c1.3-0.3-1.7-4.3-3.7-3C9.2,91.5,5.8,96.4,12,95.1C12.4,95,10.4,95.4,12,95.1z"/>
									<path class="st9" d="M34.8,105.4c-1.4-0.8-2.6,2.1-0.5,2.9C36,109.1,36,106.1,34.8,105.4C34.5,105.3,35.8,106,34.8,105.4z"
										/>
									<path class="st9" d="M44.7,102.9c-0.5-0.3-1.1,1.2-0.3,1.5C45.3,104.8,45.3,103.2,44.7,102.9
										C44.6,102.8,45.3,103.2,44.7,102.9z"/>
									<path class="st9" d="M26.7,103.9c0.1-1.5-1.5-2.8-1.7-1.1C24.9,104,26.6,105.8,26.7,103.9
										C26.8,103.5,26.7,104.1,26.7,103.9z"/>
									<path class="st9" d="M38.9,101.9c0.1-1.5-1.5-2.8-1.7-1.1C37.1,102.1,38.8,103.9,38.9,101.9
										C38.9,101.6,38.9,102.1,38.9,101.9z"/>
									<path class="st9" d="M22.3,94.9c-0.3-3.7-5.8-1.8-3.9,0.9C19.8,98,22.6,97.9,22.3,94.9C22.3,94.6,22.4,96.1,22.3,94.9z"/>
									<path class="st9" d="M125.3,59.5c-0.9,0-3.9,2.4-2.2,2.8C125,62.7,126.4,59.5,125.3,59.5C124.7,59.5,125.7,59.5,125.3,59.5
										z"/>
									<path class="st9" d="M53.7,109.5c-0.3-1.1-1,1.2-1,1.4c-0.3,1.3,1.5,1,1.1-0.7C53.8,110.1,53.8,110,53.7,109.5z"/>
									<path class="st9" d="M47.3,107.8c-0.6-0.4-1.8-0.3-2.5-0.1c-0.9,0.3-2.6,2.4-1.8,3.4C44.2,112.5,48.9,108.7,47.3,107.8
										C46.6,107.4,47.6,108,47.3,107.8z"/>
									<path class="st9" d="M109.9,93.8c-0.6-0.4-1.8-0.3-2.5-0.1c-0.9,0.3-2.6,2.4-1.8,3.4C106.8,98.6,111.5,94.8,109.9,93.8
										C109.2,93.5,110.2,94,109.9,93.8z"/>
									<path class="st9" d="M83.2,105c-0.6-0.4-1.8-0.3-2.5-0.1c-0.9,0.3-2.6,2.4-1.8,3.4C80.1,109.7,84.8,105.9,83.2,105
										C82.6,104.6,83.5,105.2,83.2,105z"/>
									<path class="st9" d="M133.6,69c-0.6-0.4-1.8-0.3-2.5-0.1c-0.9,0.3-2.6,2.4-1.8,3.4C130.5,73.8,135.1,70,133.6,69
										C132.9,68.6,133.9,69.2,133.6,69z"/>
									<path class="st10" d="M116.6,79.4c2.6,0.9,4.5,2.8,7.5,2.6"/>
								</g>
								<g>
									<g>
										<path class="st2" d="M128.3,52.4c0.1-2.1,0.7-4.3,1.7-6.2c1-2,2.5-3.7,4.2-5c1.8-1.3,3.8-2.3,5.9-2.9
											c2.1-0.6,4.2-0.9,6.4-0.8c-2.1,0.5-4.1,1.1-6,1.8c-1.9,0.8-3.8,1.7-5.4,3c-1.6,1.2-3,2.7-4.1,4.5
											C129.8,48.5,129,50.4,128.3,52.4z"/>
									</g>
									<g>
										<path class="st2" d="M115.4,84.6c0.6,0.8,1.3,1.3,2.1,1.9c0.8,0.5,1.6,0.9,2.4,1.4c0.8,0.4,1.7,0.8,2.5,1.1
											c0.9,0.3,1.7,0.6,2.7,0.7c-0.9,0.5-2,0.5-3,0.3s-2-0.5-2.9-0.9c-0.9-0.5-1.8-1-2.5-1.8C116.1,86.5,115.5,85.6,115.4,84.6z
											"/>
									</g>
									<g>
										<path class="st2" d="M113.3,88.6c0.6,0.8,1.3,1.3,2.1,1.9c0.8,0.5,1.6,0.9,2.4,1.4c0.8,0.4,1.7,0.8,2.5,1.1
											c0.9,0.3,1.7,0.6,2.7,0.7c-0.9,0.5-2,0.5-3,0.3s-2-0.5-2.9-0.9c-0.9-0.5-1.8-1-2.5-1.8C114,90.6,113.3,89.6,113.3,88.6z"
											/>
									</g>
								</g>
								<g>
									<path class="st6" d="M136.7,110.3c0.1,0,0.3,0,0.5,0.1c0.8,0.3,1.8,0.7,2.3,1.2c0.8,0.8,1.4,2.1,2,3c1.4,2.2,2,4.4,3.7,6.4
										c1.8,2.1,6,1.1,8.5,0.4c3.3-1,6.3-1.9,9.5-0.2c2.9,1.6,4.3,4.5,3.9,7.8c-0.2,1.8-1,6.4-3.3,5.8c-3.6-1-0.9-6.3-3.2-8.1
										c-2.3-1.8-7.9,3.4-9.9,4.7c-1.3,0.9-3,1.6-4.4,2.2c-2.2,1-3.7,1-5.9-0.2c-2-1.1-3.8-2.2-5.3-3.8c-1.7-1.9-3.1-4-4.7-6
										c-0.8-1-1.7-2-2.1-3.2L136.7,110.3z"/>
									<g>
										<path class="st2" d="M131.9,105.4c1.1,0.1,2.1,0.4,3.1,0.9s1.9,1.1,2.7,1.8c0.8,0.7,1.6,1.5,2.2,2.4c0.6,0.9,1.1,2,1,3.1
											c-0.5-1-1.2-1.7-1.9-2.4c-0.7-0.7-1.4-1.4-2.2-2C135.2,107.8,133.7,106.6,131.9,105.4z"/>
									</g>
								</g>
							</g>
						</g>
						<g>
							<g>
								<path class="st11" d="M150.4,44.5c-1.6,0.6-2.6,1.4-3.5,2.7c-1.6,2.4-1.8,5.8-1.1,8.4c0.7,2.7,2.2,5.3,4.6,6.9
									c4.7,3.3,12,2.6,13.6-3.7c1.1-4.5-2.2-10.9-6.3-13.3C156.5,44.9,153.6,43.3,150.4,44.5z"/>
								<g>
									<path class="st3" d="M154.5,54.1c0.3,0.4,0.4,1.2-0.1,1.5s-1-0.1-1.3-0.5c-0.2-0.2-0.4-0.5-0.5-0.8
										c-0.1-0.4,0.3-0.7,0.6-0.8c0.3,0,0.7,0.1,0.9,0.2C154.3,53.9,154.4,54,154.5,54.1z"/>
									<path d="M151.2,45.4c-2.2,1.5-2.1,5.5,0.2,9s6,5.1,8.3,3.7c2.2-1.5,2.1-5.5-0.2-9C157.1,45.6,153.4,43.9,151.2,45.4z"/>
								</g>
							</g>
							<g>
								<path class="st12" d="M198.9,53c0,0.8-1.2,1.5-2.8,1.6c-1.6,0-2.8-0.6-2.9-1.4c0-0.8,1.2-1.5,2.8-1.6
									C197.6,51.5,198.9,52.1,198.9,53z"/>
							</g>
						</g>
					</g>
				</g>
			</g>
		</g>
	</g>
	<g class="st13">
		<ellipse class="st14" cx="162.1" cy="59.6" rx="57.6" ry="57.6"/>
		<path class="st15" d="M162.1,119.4c-31.6,0-58.1-24.9-59.6-56.9c-1.6-32.9,23.9-60.9,56.8-62.4c32.9-1.6,60.9,23.9,62.4,56.8
			c1.6,32.9-23.9,60.9-56.8,62.4C163.9,119.3,163,119.4,162.1,119.4z M162.1,4.2c-0.9,0-1.8,0-2.7,0.1c-30.6,1.4-54.3,27.5-52.8,58
			c1.4,30.6,27.5,54.2,58,52.8c30.6-1.4,54.3-27.5,52.8-58C216.1,27.4,191.5,4.2,162.1,4.2z"/>
	</g>
	<g class="st16">
		<g class="st17">
			<g>
				<path id="XMLID_2_" class="st18" d="M114.5,90.4c2.3,3.3,11.7,17,29.7,23c0.7,0.2,1.2,1,0.8,1.7s-1.1,1.4-2.6,2
					c-1,0.4-2,0.5-3.1,0.3c-7.2-1.1-14.7-4.5-21-11.1c-7.1-8.3-9.6-13.6-5.5-16.3C113.3,89.7,114.1,89.9,114.5,90.4z"/>
			</g>
			<g>
				<defs>
					<path id="SVGID_1_" d="M114.5,90.4c2.3,3.3,11.7,17,29.7,23c0.7,0.2,1.2,1,0.8,1.7s-1.1,1.4-2.6,2c-1,0.4-2,0.5-3.1,0.3
						c-7.2-1.1-14.7-4.5-21-11.1c-7.1-8.3-9.6-13.6-5.5-16.3C113.3,89.7,114.1,89.9,114.5,90.4z"/>
				</defs>
				<clipPath id="SVGID_2_">
					<use xlink:href="#SVGID_1_"  style="overflow:visible;"/>
				</clipPath>
				<g class="st19">
					<g>
						<path class="st20" d="M115.1,100.8c0.7-1.1,1.8-1.8,3.1-2c0.8-0.1,1.5-0.6,1.5-1.5c0-0.7-0.7-1.6-1.5-1.5
							c-2.4,0.3-4.4,1.5-5.7,3.5C111.5,100.9,114.1,102.4,115.1,100.8L115.1,100.8z"/>
					</g>
				</g>
			</g>
			<g>
				<defs>
					<path id="SVGID_3_" d="M114.5,90.4c2.3,3.3,11.7,17,29.7,23c0.7,0.2,1.2,1,0.8,1.7s-1.1,1.4-2.6,2c-1,0.4-2,0.5-3.1,0.3
						c-7.2-1.1-14.7-4.5-21-11.1c-7.1-8.3-9.6-13.6-5.5-16.3C113.3,89.7,114.1,89.9,114.5,90.4z"/>
				</defs>
				<clipPath id="SVGID_4_">
					<use xlink:href="#SVGID_3_"  style="overflow:visible;"/>
				</clipPath>
				<g class="st21">
					<g>
						<path class="st22" d="M115.3,103.5c0.7-0.7,1.3-1.5,1.8-2.4c0-0.1,0.4-1,0.5-1c-0.2,0.2-0.3,0.4-0.5,0.6
							c0.4-0.4,0.4-0.4,0-0.1s-0.4,0.3-0.1,0.1c0.1-0.1,0.2-0.1,0.3-0.2c0.6-0.4-1.2,0.5-0.2,0.1c0.8-0.3-0.1,0-0.4,0
							c1.3-0.1-1.3-0.3-0.1,0c3,0.8,6.6-1,7.4-4.2c0.7-3.1-0.9-6.6-4.2-7.4c-2.9-0.7-5.9-0.4-8.6,1.1c-1.1,0.6-2,1.4-2.8,2.3
							c-0.5,0.6-1,1.2-1.4,1.9c-0.2,0.4-1.3,1.7-0.2,0.6c-2.1,2.3-2.4,6.2,0,8.5C109.2,105.6,113,105.9,115.3,103.5L115.3,103.5z"/>
					</g>
				</g>
			</g>
			<g>
				<defs>
					<path id="SVGID_5_" d="M114.5,90.4c2.3,3.3,11.7,17,29.7,23c0.7,0.2,1.2,1,0.8,1.7s-1.1,1.4-2.6,2c-1,0.4-2,0.5-3.1,0.3
						c-7.2-1.1-14.7-4.5-21-11.1c-7.1-8.3-9.6-13.6-5.5-16.3C113.3,89.7,114.1,89.9,114.5,90.4z"/>
				</defs>
				<clipPath id="SVGID_6_">
					<use xlink:href="#SVGID_5_"  style="overflow:visible;"/>
				</clipPath>
				<g class="st23">
					<g>
						<path class="st24" d="M138.6,110.8c-0.4,1.4-0.8,3-1.6,4.2c-0.7,1.1-2.4,1.8-3.6,2.4c-1.7,0.8-0.2,3.4,1.5,2.6
							c1.6-0.8,3.4-1.6,4.4-3.1c1.1-1.5,1.7-3.5,2.1-5.3C142,109.7,139.1,108.9,138.6,110.8L138.6,110.8z"/>
					</g>
				</g>
			</g>
			<g>
				<defs>
					<path id="SVGID_7_" d="M114.5,90.4c2.3,3.3,11.7,17,29.7,23c0.7,0.2,1.2,1,0.8,1.7s-1.1,1.4-2.6,2c-1,0.4-2,0.5-3.1,0.3
						c-7.2-1.1-14.7-4.5-21-11.1c-7.1-8.3-9.6-13.6-5.5-16.3C113.3,89.7,114.1,89.9,114.5,90.4z"/>
				</defs>
				<clipPath id="SVGID_8_">
					<use xlink:href="#SVGID_7_"  style="overflow:visible;"/>
				</clipPath>
				<g class="st25">
					<g>
						<path class="st22" d="M136.3,109.8c-0.6,1-1.1,2-1.7,3c0,0.1-0.5,0.8-0.5,0.8c-0.3-0.2,1.5-1.1,1.5-1.1
							c1.5,3.7,3.1,7.3,4.6,11c3.8-2.5,7.5-6.4,8-11.2c0.3-2.7-2.1-5-4.4-5.8c-3.9-1.3-6.8,1.8-8.9,4.6c3.7,1.5,7.3,3.1,11,4.6
							c-0.2,0.5-0.2,0.4,0.1-0.2c-3.7-1.5-7.3-3.1-11-4.6c-0.2,1.2-0.4,2.4-0.6,3.6c-0.4,2.4,0.1,4.7,2.2,6.3
							c1.7,1.3,4.8,1.9,6.7,0.5c2.3-1.8,3.7-3.6,4.8-6.3c-3.9-1.1-7.7-2.1-11.6-3.2c-0.7,1.8,0.4-0.7-0.5,1
							c-0.1,0.2-0.2,0.4-0.3,0.6c-0.8,1.3-0.2,1,1.9-1c1.5,3.7,3.1,7.3,4.6,11c3.2-2,6-4.1,8.1-7.3c1.4-2.1,0.9-5.6-0.9-7.3
							c-2-1.8-4.9-2.3-7.3-0.9c-1.6,0.9-3.1,2.1-4.4,3.5c3.1,2.4,6.3,4.8,9.4,7.3c0.6-1.1,1.2-2.2,1.8-3.3c-3.5-2-6.9-4-10.4-6.1
							c-0.7,1.4-1.5,2.8-2.3,4.1c-1.8,2.6-0.6,6.8,2.2,8.2c3.1,1.7,6.2,0.6,8.2-2.2c0.5-0.6,1.2-1.4,2.1-2.4
							c-3.3-1.9-6.7-3.9-10-5.8c-0.5,1.3-0.6,1.6-1.3,3c-1.3,2.8-0.9,6.6,2.2,8.2c2.9,1.5,6.5,0.7,8.2-2.2c0.9-1.5,1.7-3,2.3-4.5
							c1.3-2.9,0.9-6.6-2.2-8.2c-2.6-1.4-6.9-0.9-8.2,2.2c-0.7,1.6-1.5,3.2-2.3,4.8c-1.5,2.8-0.8,6.6,2.2,8.2s6.4,0.6,8.2-2.2
							c0.8-1.2,1.6-2.5,2.3-3.8c-3.5-2-6.9-4-10.4-6.1c-0.7,1.6-1.4,3.2-2.2,4.8c-1.2,2.8-1,5.8,1.5,7.7c2.4,1.8,5.7,1.6,7.9-0.5
							c2.1-2.1,3.2-5.1,4.5-7.8c1.3-2.8,0.9-6.6-2.2-8.2c-2.8-1.5-6.6-0.8-8.2,2.2c-1,1.8-1.9,3.6-2.9,5.4c-1.5,2.8-0.8,6.7,2.2,8.2
							c3.2,1.7,6.2,0.5,8.2-2.2c1.1-1.4,1.9-2.8,2.7-4.4c-3.7-1.5-7.3-3.1-11-4.6c-0.5,1.4-0.6,1.7-1.1,2.8
							c-1.4,2.8-0.8,6.6,2.2,8.2c2.7,1.4,6.7,0.9,8.2-2.2c0.9-1.8,1.7-3.7,2.3-5.7c2.1-6.4-7.9-10.8-11-4.6c-0.8,1.5-1.7,3-2.7,4.4
							c3.5,2,6.9,4,10.4,6.1c1-1.8,1.9-3.6,2.9-5.4c-3.5-2-6.9-4-10.4-6.1c-0.5,1.2-1.1,2.3-1.7,3.5c-0.3,0.5-0.5,1-0.8,1.6
							c-0.2,0.4-1,1.2-0.1,0.3c3.1,2.4,6.3,4.8,9.4,7.3c0.7-1.6,1.4-3.2,2.2-4.8c1.3-2.9,0.9-6.6-2.2-8.2c-2.8-1.5-6.6-0.8-8.2,2.2
							c-0.7,1.3-1.5,2.6-2.3,3.8c3.5,2,6.9,4,10.4,6.1c0.8-1.6,1.6-3.2,2.3-4.8c-3.5-2-6.9-4-10.4-6.1c-0.7,1.6-1.5,3.1-2.3,4.5
							c3.5,2,6.9,4,10.4,6.1c0.9-1.9,1.8-3.9,2.5-5.9c0.9-2.4-0.6-5.6-2.8-6.8c-2.3-1.2-5.4-1-7.3,0.9c-1.4,1.5-2.7,3.1-3.9,4.8
							c3.5,2,6.9,4,10.4,6.1c0.9-1.3,1.7-2.7,2.3-4.1c1.3-2.8,0.9-6.6-2.2-8.2c-2.8-1.5-6.6-0.8-8.2,2.2c-0.6,1.1-1.2,2.2-1.8,3.3
							c-1.4,2.6-0.8,5.9,1.5,7.7c2.3,1.8,5.8,1.7,7.9-0.5c0.4-0.4,0.8-0.9,1.3-1.2c-0.8,0.6,0.6-0.3,0.7-0.4
							c-2.7-2.7-5.5-5.5-8.2-8.2c0.6-0.9-0.4,0.4-0.5,0.5c0,0-1.4,1.2-0.5,0.5c-0.9,0.7-1.9,1.3-2.8,1.9c-5.8,3.6-2.1,12.5,4.6,11
							c4.2-1,5.8-5.4,7.2-9c1.2-2.9-1.3-6.7-4.2-7.4c-3.5-0.8-6.1,1.1-7.4,4.2c0.2-0.6,0.2-0.5,0.7-0.9c2.9,2.3,5.9,4.5,8.8,6.8
							c0.2-1.2,0.4-2.4,0.6-3.6c0.5-3-0.6-5.9-3.5-7.1c-2.7-1.1-6-0.2-7.5,2.5c-0.5,1-1,2-1.3,3.1c-1,2.8,0.9,6,3.5,7.1
							c2.9,1.2,5.7,0,7.5-2.5c-0.2,0.3-0.2,0.3,0.1,0c0.4-0.4,0.3-0.3-0.3,0.2c-1.5,0.2-3.1,0.4-4.6,0.6c0.1,0,0.1,0,0.2,0.1
							c-1.5-1.9-2.9-3.9-4.4-5.8c0,0.1,0,0.2,0,0.3c0.3-1,0.5-2,0.8-3c-0.2,0.5-0.5,1-0.8,1.4c-0.8,1.3,0.7-0.6-0.4,0.5
							c-0.4,0.4-0.8,0.8-1.2,1.2c-0.9,0.9,0.6-0.4-0.5,0.4c-2.5,1.7-3.7,4.7-2.5,7.5c1.1,2.7,4.2,4.3,7.1,3.5
							c4.2-1.2,5.9-4.8,7.8-8.3c1.5-2.7,0.8-6.7-2.2-8.2C141.7,106.2,137.9,106.9,136.3,109.8L136.3,109.8z"/>
					</g>
				</g>
			</g>
			<g>
				<defs>
					<path id="SVGID_9_" d="M114.5,90.4c2.3,3.3,11.7,17,29.7,23c0.7,0.2,1.2,1,0.8,1.7s-1.1,1.4-2.6,2c-1,0.4-2,0.5-3.1,0.3
						c-7.2-1.1-14.7-4.5-21-11.1c-7.1-8.3-9.6-13.6-5.5-16.3C113.3,89.7,114.1,89.9,114.5,90.4z"/>
				</defs>
				<clipPath id="SVGID_10_">
					<use xlink:href="#SVGID_9_"  style="overflow:visible;"/>
				</clipPath>
				<g class="st26">
					<g>
						<path class="st22" d="M132,107.9c-0.5,1.1-1.1,2.2-1.6,3.3c-0.3,0.6,0.7-0.6,0.2-0.2c-0.2,0.2-0.4,0.4-0.6,0.6
							c-0.1,0.1-0.9,0.7-0.2,0.2c0.8-0.6-0.3,0.2-0.4,0.2c-2.5,1.8-4,5.3-2.2,8.2c1.6,2.5,5.5,4.1,8.2,2.2c1.6-1.2,3.2-2.3,4.4-3.9
							c1.1-1.4,1.7-2.9,2.4-4.5c0.7-1.5,1.1-2.9,0.6-4.6c-0.4-1.4-1.5-2.9-2.8-3.6C137.6,104.4,133.3,104.9,132,107.9L132,107.9z"/>
					</g>
				</g>
			</g>
			<g>
				<defs>
					<path id="SVGID_11_" d="M114.5,90.4c2.3,3.3,11.7,17,29.7,23c0.7,0.2,1.2,1,0.8,1.7s-1.1,1.4-2.6,2c-1,0.4-2,0.5-3.1,0.3
						c-7.2-1.1-14.7-4.5-21-11.1c-7.1-8.3-9.6-13.6-5.5-16.3C113.3,89.7,114.1,89.9,114.5,90.4z"/>
				</defs>
				<clipPath id="SVGID_12_">
					<use xlink:href="#SVGID_11_"  style="overflow:visible;"/>
				</clipPath>
				<g class="st27">
					<g>
						<path class="st22" d="M118.5,103.5c-0.1,0.1-0.9,0.6-0.9,0.7c-0.1,0-0.1,0-0.2,0c0.8,0,0.9,0,0.5,0c3.2,0.6,6.5-0.9,7.4-4.2
							c0.9-3.4-1.2-6.2-4.2-7.4c-4.2-1.6-8.9,1.4-11.7,4.3c-4.3,4.5,0.1,11.1,5.8,10c2.7-0.5,6.2-0.7,8.6-2.2
							c4.8-3.1,3.2-11.4-3-11.2c-2.9,0.1-5.7,0.8-8.2,2.4c-2.7,1.7-3.8,5.3-2.2,8.2c1.6,2.8,5.4,3.8,8.2,2.2
							c0.7-0.4,2.1-1.1,2.4-1.2c2.3-0.9,4-2.4,4.3-5c0.3-2.2-0.7-4.9-2.9-6c-5.8-2.9-11.4,0.6-14.2,5.8c-2.9,5.5,2.9,10.8,8.2,8.2
							c2.1-1,3.6-1.7,5.9-2.3c-1.1-3.9-2.1-7.7-3.2-11.6c-2.9,1.2-5.7,2.4-8.4,4c-2.6,1.5-3.6,4.8-2.5,7.5c1.3,3,4,3.9,7.1,3.5
							c3.8-0.5,6.8-3,10.1-4.7c-2.7-2.7-5.5-5.5-8.2-8.2c0.7-1,1-1.1-0.2-0.4c-0.5,0.3-1.1,0.6-1.6,1c-1.1,0.6-2.1,1.3-3.2,1.9
							c-2.5,1.5-3.6,4.8-2.5,7.5c1.3,2.9,4,3.9,7.1,3.5c3.3-0.5,6.6-1.9,9.2-3.9c2.6-2,3.9-5.2,2.2-8.2c-1.7-2.8-5.4-3.7-8.2-2.2
							c-2.5,1.4-5,2.9-7.4,4.4c-2.7,1.7-3.8,5.3-2.2,8.2c1.6,2.8,5.4,3.8,8.2,2.2c2.5-1.4,4.7-3.1,6.9-5c-3.3-1.9-6.7-3.9-10-5.8
							c-0.3,0.9-0.2,0.2,0,0.2c0.3,0,1.1-0.6,1.5-0.6c-3.2,0.2-6,2.6-6,6c0,3.1,2.7,6.2,6,6c3.9-0.2,7.4-1.6,10.1-4.5
							c5.3-5.6-2.9-13.9-8.5-8.5c-0.4,0.4-0.7,0.7-1.1,1.1c-0.1,0.1-1.1,0.9-0.5,0.4c-0.3,0.2-0.7,0.5-1,0.6
							c0.8-0.4-0.7,0.1-0.9,0.2c1.1,3.9,2.1,7.7,3.2,11.6c3.5-1.1,6.5-2.8,9.2-5.3c-3.1-2.4-6.3-4.8-9.4-7.3
							c0.5-0.7-0.7,0.6-0.7,0.6c0.6-0.5-0.4,0.2-0.6,0.3c-1,0.6-2.1,1.1-3.1,1.5c-2.9,1.3-3.7,5.6-2.2,8.2c1.8,3,5.2,3.5,8.2,2.2
							c3.5-1.6,6.4-3.6,8.7-6.7c1.8-2.4,0.6-6.1-1.5-7.7c-2.4-1.8-5.6-1.6-7.9,0.5c-1.1,1-2.4,1.8-3.9,2.2c-3.1,1-5.1,4.2-4.2,7.4
							c0.9,3.3,4.2,4.8,7.4,4.2c3.5-0.7,6.3-3,8.8-5.4c-2.8-2.8-5.7-5.7-8.5-8.5c-0.5,0.5-0.6,0.6-0.1,0.3c-0.3,0.2-0.7,0.4-1,0.6
							c1-0.5-1.8,0.1-0.5,0.1c0,4,0,8,0,12c5.2-0.3,8.6-3.6,10.1-8.4c0.8-2.5-0.5-5.5-2.8-6.8c-2.4-1.4-5.3-0.8-7.3,0.9
							c-1.3,1.1-2.7,2.1-4.4,3.1c2,3.5,4,6.9,6.1,10.4c2.4-1.5,4.9-3,7.4-4.4c-2-3.5-4-6.9-6.1-10.4c-2.3,1.8-3.6,2.3-6.4,2.7
							c1.5,3.7,3.1,7.3,4.6,11c3.3-2,6.9-3.6,9.3-6.8c1.6-2.1,0.8-5.6-0.9-7.3c-2-2-4.9-2.2-7.3-0.9c-1.4,0.7-2.6,1.5-3.9,2.3
							c-0.5,0.3-1.1,0.7-1.7,0.9c0.6-0.3-1.3,0.3-1.6,0.3c1.5,3.7,3.1,7.3,4.6,11c1.8-1,4-2.2,5.5-2.8c3-1.2,5.1-4,4.2-7.4
							c-0.9-3.2-4.2-4.9-7.4-4.2c-3.1,0.7-6,2.1-8.8,3.5c2.7,2.7,5.5,5.5,8.2,8.2c0.2-0.4,0.4-0.8,0.7-1.2c-0.2,0.2-0.2,0.2,0.1-0.1
							c0.3-0.3,0.3-0.3-0.1,0c-1,0.3-1.9,0.2-2.9-0.3c0.5-3.7,1-7.3,1.4-11c-1.8,0.7-3.6,1.5-5.2,2.4c2,3.5,4,6.9,6.1,10.4
							c0,0,1.5-0.8,1-0.6c0.8-0.4,0.2-0.2,1.1-0.2c-1-3.7-2-7.5-3-11.2c0.6-0.4,0.2-0.1-0.3,0c-0.6,0.1-1.3,0.2-1.9,0.4
							c-1.2,0.2-2.3,0.4-3.5,0.7c1.9,3.3,3.9,6.7,5.8,10c0.5-0.5,0.8-0.8,1.1-1s0.6-0.4,0.9-0.5c-0.6,0.4-1.3,0.5-2,0.3
							c1.1-3.9,2.1-7.7,3.2-11.6c-5-0.9-10.2,0-13,4.8c-1.6,2.8-0.7,6.6,2.2,8.2C113.1,107.2,116.9,106.3,118.5,103.5L118.5,103.5z"
							/>
					</g>
				</g>
			</g>
			<g>
				<defs>
					<path id="SVGID_13_" d="M114.5,90.4c2.3,3.3,11.7,17,29.7,23c0.7,0.2,1.2,1,0.8,1.7s-1.1,1.4-2.6,2c-1,0.4-2,0.5-3.1,0.3
						c-7.2-1.1-14.7-4.5-21-11.1c-7.1-8.3-9.6-13.6-5.5-16.3C113.3,89.7,114.1,89.9,114.5,90.4z"/>
				</defs>
				<clipPath id="SVGID_14_">
					<use xlink:href="#SVGID_13_"  style="overflow:visible;"/>
				</clipPath>
				<g class="st28">
					<g>
						<path class="st24" d="M114.4,101.4c1.6-1.2,3.2-2.9,5.3-2.4c1.9,0.5,2.7-2.4,0.8-2.9c-3.1-0.8-5.2,0.9-7.6,2.7
							C111.3,99.9,112.8,102.5,114.4,101.4L114.4,101.4z"/>
					</g>
				</g>
			</g>
			<g>
				<defs>
					<path id="SVGID_15_" d="M114.5,90.4c2.3,3.3,11.7,17,29.7,23c0.7,0.2,1.2,1,0.8,1.7s-1.1,1.4-2.6,2c-1,0.4-2,0.5-3.1,0.3
						c-7.2-1.1-14.7-4.5-21-11.1c-7.1-8.3-9.6-13.6-5.5-16.3C113.3,89.7,114.1,89.9,114.5,90.4z"/>
				</defs>
				<clipPath id="SVGID_16_">
					<use xlink:href="#SVGID_15_"  style="overflow:visible;"/>
				</clipPath>
				<g class="st29">
					<g>
						<path class="st24" d="M115.2,100.8c1-2.4,4-2,6-1.5c1.9,0.5,2.7-2.4,0.8-2.9c-1.8-0.4-3.8-0.8-5.6-0.2
							c-1.4,0.5-3.1,1.7-3.7,3.1C111.9,101,114.5,102.6,115.2,100.8L115.2,100.8z"/>
					</g>
				</g>
			</g>
		</g>
	</g>
</g>
<g id="dinosaurio">
</g>
</svg>
