<svg width="25" height="19" viewBox="0 0 25 19" fill="none" xmlns="http://www.w3.org/2000/svg">
<path d="M1.5625 3.125H23.4375C24.2969 3.125 25 2.42188 25 1.5625C25 0.703125 24.2969 0 23.4375 0H1.5625C0.703125 0 0 0.703125 0 1.5625C0 2.42188 0.703125 3.125 1.5625 3.125Z" fill="black"/>
<path d="M23.4375 7.8125H1.5625C0.703125 7.8125 0 8.51562 0 9.375C0 10.2344 0.703125 10.9375 1.5625 10.9375H23.4375C24.2969 10.9375 25 10.2344 25 9.375C25 8.51562 24.2969 7.8125 23.4375 7.8125Z" fill="black"/>
<path d="M23.4375 15.625H1.5625C0.703125 15.625 0 16.3281 0 17.1875C0 18.0469 0.703125 18.75 1.5625 18.75H23.4375C24.2969 18.75 25 18.0469 25 17.1875C25 16.3281 24.2969 15.625 23.4375 15.625Z" fill="black"/>
</svg>
