<?xml version="1.0" encoding="utf-8"?>
<!-- Generator: Adobe Illustrator 23.0.2, SVG Export Plug-In . SVG Version: 6.00 Build 0)  -->
<svg version="1.1" id="Capa_1" xmlns="http://www.w3.org/2000/svg" xmlns:xlink="http://www.w3.org/1999/xlink" x="0px" y="0px"
	 viewBox="0 0 160.4 161.7" style="enable-background:new 0 0 160.4 161.7;" xml:space="preserve">
<style type="text/css">
	.st0{fill:#FFFFFF;}
	.st1{fill:none;}
	.st2{fill:#ACBBBF;}
	.st3{fill:#231F20;}
</style>
<g id="ARTBOARD_2">
</g>
<g id="dinosaurio">
</g>
<g>
	<path class="st0" d="M79.9,1.9c1.2-0.5,3,0.1,4.3,0c2.6-0.1,5.7-1.4,7.2,1.7c0,0,0,0.1,0.1,0.1c-3.1-0.4-6.3-0.6-9.4-0.6
		c-1.4,0-2.8,0-4.1,0.1C78.3,2.8,78.8,2.4,79.9,1.9z"/>
	<path class="st0" d="M11.9,41.7c1.5-2.1,2.6-4.1,5-5.4c0.7-0.4,1.4-0.8,2.1-1.2c-3.5,4.8-6.5,10-8.8,15.5c-0.1-0.2-0.3-0.5-0.4-0.7
		C8,46.9,10.2,44.2,11.9,41.7z"/>
	<path class="st0" d="M40.9,151.4c-2.3-1.3-3.9-2.3-5.2-4.8c-0.6-1.1-1.1-2.4-1.6-3.5c1,0.8,2.1,1.6,3.2,2.4
		c3.7,2.6,7.7,4.9,11.8,6.8C45.9,153.9,44,153.2,40.9,151.4z"/>
	<path class="st0" d="M158.4,106.4c-0.2,1.3-1.1,2.6-1.5,3.8c-0.9,3-0.5,6.9-4.4,7.3c-0.5,0.1-1,0.2-1.5,0.4
		c2.7-5.1,4.9-10.5,6.4-16.1C158,103.4,158.7,104.5,158.4,106.4z"/>
	<path class="st0" d="M115.2,149.6L115.2,149.6c-0.5,0.2-0.9,0.4-1.4,0.5c-1.2,0.4-3.3,0.1-3.7,1.7c0,0.1,0.1,0.3,0.2,0.2
		c1.4-0.3,2.9-0.4,4.3-0.8c0.2-0.1,0.4-0.1,0.6-0.2c-0.6,1-1.1,2-1.7,2.9c-1.2,2-3.9,2.1-5.8,3c-2.6,1.1-5.5,4-8,1.5
		c-0.6-0.5-1.1-0.9-1.7-1.2c1.2-0.4,2.4-1,3.5-1.7c0.2-0.2,0.1-0.5-0.1-0.5c-1.8-0.1-3.6,0.6-5.3,1c-0.3,0.1-0.7,0.1-1,0.2v-0.1
		c-4.3,0.7-8.6,1.1-13,1.1c-29.4,0-56.3-17.3-68.7-43.6c0.1-1.3-0.8-2.5-1.3-3.7c-0.7-1.6-1.9-3.2-2.3-4.9c-0.1-0.3-0.5-0.3-0.6,0
		c-0.5,1.4,0.3,2.6,0.9,3.9c-0.7-0.3-1.4-0.6-2.3-0.8c-3.1-0.8-2.9-8.4-3.5-11.1c-0.9-3.9-4.1-6.4-0.7-10.3c0.4-0.4,0.6-0.8,0.9-1.2
		c0.1,0.9,0.3,1.7,0.5,2.6c0.4,1.8,0.5,3.7,1.5,5.3c0.2,0.4,0.7,0.1,0.6-0.3c-0.7-1.6-0.3-3.6-0.6-5.3c-0.2-1.2-0.2-2.4-0.3-3.6h0.1
		c0-0.9-0.1-1.9-0.1-2.8c0-23.1,10.6-44.9,28.5-59.3c0.1,0,0.2,0,0.3,0c0.7-0.2,1.1-0.6,1.6-1.1c0.9-0.8,1.9-1.3,2.9-1.9
		c0.8-0.5,1.5-1,2.2-1.6c0.7-0.7,1.2-1.8,2.2-2.1c0.3-0.1,0.3-0.5,0-0.6c-1.8-0.5-3.4,1.6-4.8,2.4c0,0,0,0-0.1,0
		c0.4-0.9,0.6-1.9,0.6-3c0.2-3.4,7.5-4.8,10.2-6.1c3.6-1.6,5.5-5.3,9.9-2.8c1.2,0.7,2.2,1,3.2,1v0.1c-0.7,0.2-1.3,0.4-1.8,0.6
		c-1.2,0.3-3.1,0.8-3.2,2.2c0,0.2,0.2,0.2,0.3,0.2c1.3-0.6,2.8-1,4.2-1.3c1.1-0.2,2.3-0.4,3.4-0.6s1.8,0,2.7-0.8l0.1-0.1
		c4.5-0.8,9-1.2,13.6-1.2c17.5,0,34.6,6.1,48.1,17.2l0,0c0.3,0.2,0.6,0.5,0.8,0.8c1.4,1.4,2.5,3.1,4.2,4.3c0.2,0.1,0.4-0.1,0.3-0.3
		c-0.5-0.8-0.9-1.7-1.3-2.6c-0.5-0.9-1.3-1.7-2-2.5c1.3,0.2,2.5-0.1,3.9-0.3c2.7-0.4,6.2,7.3,8.2,9c2.5,2.1,5.7,4.1,4.8,7.9
		c-0.5,2-0.6,3.3,0.1,4.8c-0.9-1.4-1.9-2.7-3-4c-0.1-0.1-0.2,0-0.1,0.1c0.8,1.8,1.5,3.5,2.4,5.3c0.6,1.2,1.2,2.6,2.2,3.7
		c4.9,10.2,7.4,21.4,7.4,32.7C158,110.6,141.6,136.8,115.2,149.6z"/>
	<g>
		<path class="st1" d="M49.7,19c0,0.2,0,0.4,0,0.6c0.2-0.2,0.5-0.4,0.7-0.6l0,0c0.1-0.2,0.2-0.4,0.2-0.6c-0.4,0-0.9,0.2-1.3,0.3
			C49.6,18.7,49.7,18.8,49.7,19z"/>
		<path class="st1" d="M51.3,22.5c-0.1,0.2-0.2,0.4-0.2,0.7c0.2-0.1,0.4-0.2,0.5-0.3C51.5,22.8,51.4,22.7,51.3,22.5z"/>
		<path class="st1" d="M49.6,23.5c-0.1,0.2-0.2,0.4-0.2,0.6c0.1-0.1,0.2-0.1,0.3-0.2C49.6,23.8,49.6,23.6,49.6,23.5z"/>
		<path class="st1" d="M52.2,18.8c0-0.1,0.1-0.1,0.1-0.2c-0.3-0.1-0.6-0.2-0.9-0.3c0,0.1,0,0.2,0,0.2C51.7,18.3,52.2,18.3,52.2,18.8
			z"/>
		<path class="st1" d="M32.2,86.2C32.2,86.2,32.2,86.1,32.2,86.2C32.2,86.1,32.2,86.1,32.2,86.2c-0.1,0-0.2,0.1-0.2,0.1l0,0
			C32.1,86.3,32.1,86.2,32.2,86.2z"/>
		<path class="st1" d="M34.2,92.8c-0.2,0-0.4,0.1-0.6,0.1c0.1,0.1,0.1,0.2,0.2,0.4C33.8,93,34,92.9,34.2,92.8z"/>
		<path class="st1" d="M48.6,22.7c0.1-0.1,0.1-0.3,0.2-0.4c0,0,0,0-0.1,0C48.7,22.4,48.6,22.6,48.6,22.7L48.6,22.7z"/>
		<path class="st1" d="M53.2,21.7c-0.1-0.1-0.1-0.2-0.1-0.4c0.2-0.9,0.2-1.5-0.1-2c0.1,0.9,0.2,1.9-0.2,2.7
			C52.9,21.9,53,21.8,53.2,21.7z"/>
		<path class="st1" d="M28.8,60.1c-0.1-0.1-0.2-0.1-0.3-0.2c0.1,0.1,0.2,0.2,0.2,0.3C28.7,60.2,28.8,60.2,28.8,60.1z"/>
		<path class="st1" d="M37.2,93.4C37.2,93.4,37.1,93.4,37.2,93.4c-0.2,0.2-0.4,0.2-0.5,0.3c0.3,0,0.7-0.1,1-0.3
			C37.5,93.4,37.4,93.4,37.2,93.4z"/>
		<path class="st1" d="M41.3,24.1L41.3,24.1c-0.3,0.2-0.5,0.4-0.7,0.7c0,0.1,0,0.2,0.1,0.3C40.9,24.7,41.1,24.3,41.3,24.1z"/>
		<path class="st1" d="M27.6,58.4C27.6,58.4,27.6,58.5,27.6,58.4C27.6,58.5,27.6,58.5,27.6,58.4C27.6,58.5,27.6,58.5,27.6,58.4z"/>
		<path class="st1" d="M42.3,26.6c-0.1-0.1-0.1-0.3,0-0.5l0,0C42.2,26,42.1,26,42,25.8h-0.1c0,0.1,0,0.1-0.1,0.2c0,0,0,0,0,0.1
			c0.1,0.2,0,0.3-0.1,0.5C41.9,26.5,42.1,26.6,42.3,26.6z"/>
		<path class="st1" d="M44,26.1L44,26.1C44,26.2,43.9,26.2,44,26.1c0,0.1,0,0.1,0.1,0.1C44,26.2,44,26.2,44,26.1z"/>
		<path class="st1" d="M43.4,22.7c0-0.2,0.1-0.3,0.1-0.5c-0.1,0.1-0.3,0.2-0.4,0.3c0,0.1,0,0.2-0.1,0.2c-0.2,0.2-0.3,0.5-0.3,0.8
			c0.1-0.1,0.2-0.3,0.3-0.4S43.2,22.8,43.4,22.7z"/>
		<path class="st1" d="M46.6,20.3c-0.5,0.3-1,0.5-1.4,0.8c-0.1,0.1-0.3,0.2-0.4,0.3c0,0.2,0,0.4,0,0.6c0.2,0.1,0.2,0.3,0.1,0.5
			c0,0.1-0.1,0.1-0.1,0.2s0,0.2-0.1,0.4c0,0.4-0.1,0.8-0.2,1.2c0.3-0.5,0.6-1,0.9-1.4C45.9,21.9,46.3,21.2,46.6,20.3z"/>
		<path class="st1" d="M45.4,25.8c0.3-0.1,0.7-0.3,1-0.4c-0.1-0.7,0.1-1.5,0.4-2.2C46.3,24.1,45.7,24.9,45.4,25.8z"/>
		<path class="st1" d="M47.8,21.2c0.4-0.7,0.9-1.4,0.9-2.1V19c-0.1,0.1-0.2,0.1-0.3,0.2c-0.2,0.2-0.4,0.3-0.7,0.5
			c0,0,0.1,0.1,0.1,0.2C48,20.3,48,20.8,47.8,21.2z"/>
		<path class="st1" d="M83.9,91.9L83.9,91.9L83.9,91.9L83.9,91.9z"/>
		<path class="st1" d="M95.9,69.9c0.1,0,0.1,0,0.2,0c-1.2-0.5-2.4-1.2-3.3-2.1C93.6,68.9,94.6,69.6,95.9,69.9z"/>
		<path class="st1" d="M90.2,112.5L90.2,112.5L90.2,112.5z"/>
		<path class="st1" d="M82.5,40.8c0-0.1,0-0.1-0.1-0.2c-0.1,0-0.2-0.1-0.3-0.1l0,0c0,0.1,0,0.3-0.1,0.4c0.1,0,0.1-0.1,0.2-0.1
			C82.3,40.8,82.4,40.8,82.5,40.8z"/>
		<path class="st1" d="M80.6,45.4c-0.4-0.1-0.8-0.2-1.1-0.4c-0.1,0.1-0.3,0.1-0.4,0.2c0.1,0.1,0.2,0.2,0.3,0.3
			C79.8,45.5,80.2,45.4,80.6,45.4z"/>
		<path class="st1" d="M79.9,42.9L79.9,42.9C80,42.8,80,42.8,79.9,42.9v-0.1c-0.1,0-0.1,0.1-0.2,0.1C79.8,42.8,79.8,42.8,79.9,42.9
			L79.9,42.9z"/>
		<path class="st1" d="M34.1,143c0.5,1.2,1,2.4,1.6,3.5c1.3,2.4,2.9,3.4,5.2,4.8c3.1,1.8,5,2.5,8.2,0.8c-4.1-1.9-8-4.2-11.8-6.8
			C36.2,144.7,35.1,143.9,34.1,143z"/>
		<path class="st1" d="M40.2,88.7c0.1,0,0.1,0.1,0.2,0.1c-0.1-0.3-0.3-0.6-0.5-0.9V88c0,0.1,0.1,0.3,0.1,0.4
			C40.1,88.6,40.2,88.7,40.2,88.7z"/>
		<path class="st1" d="M10.1,50.7c2.3-5.5,5.3-10.7,8.8-15.5c-0.7,0.4-1.4,0.8-2.1,1.2c-2.4,1.3-3.5,3.3-5,5.4
			c-1.7,2.4-3.9,5.1-2.2,8.2C9.9,50.2,10,50.4,10.1,50.7z"/>
		<path class="st1" d="M91.4,3.7L91.4,3.7c-1.5-3.2-4.7-1.9-7.2-1.8c-1.3,0.1-3.1-0.5-4.3,0c-1.1,0.5-1.6,0.9-2.1,1.3
			c1.4-0.1,2.8-0.1,4.1-0.1C85.2,3.2,88.3,3.4,91.4,3.7z"/>
		<path class="st1" d="M83,90.3c0.2,0.2,0.3,0.4,0.4,0.6c0.1,0,0.2,0,0.3,0c-0.1-0.3-0.2-0.5-0.4-0.7C83.2,90.3,83.1,90.3,83,90.3z"
			/>
		<path class="st1" d="M27.1,61.6c-0.1-0.1-0.2-0.1-0.4-0.2c0.1,0.1,0.1,0.2,0.2,0.3C27,61.6,27,61.6,27.1,61.6z"/>
		<path class="st1" d="M89.2,111.8c0,0-0.1,0.1-0.2,0.1C89.1,111.9,89.2,111.9,89.2,111.8C89.3,111.9,89.2,111.9,89.2,111.8z"/>
		<path class="st1" d="M82.5,95.4c-0.1,0-0.1,0.1-0.2,0.1c0.4,0.2,0.8,0.1,1.1-0.3v-0.1C83.1,95.4,82.8,95.5,82.5,95.4z"/>
		<path class="st1" d="M59.1,94.4C59.1,94.5,59.1,94.5,59.1,94.4C59.1,94.5,59.1,94.4,59.1,94.4L59.1,94.4z"/>
		<path class="st1" d="M89.8,113.8c-0.6,0-1.2,0-1.8,0.2c-0.1,0.2,0,0.5,0.1,0.8c0.8-0.9,2.3-1.1,3.4-0.8c-0.2-0.3-0.5-0.6-0.7-0.9
			C90.9,113.6,90.2,113.8,89.8,113.8z"/>
		<path class="st1" d="M81.6,89c0.1,0.2,0.1,0.4-0.1,0.6l0,0c0.3,0,0.6-0.1,0.9-0.1C82.2,89.3,81.9,89.2,81.6,89z"/>
		<path class="st1" d="M82.9,93L82.9,93C82.9,92.9,82.8,92.9,82.9,93c0,0,0,0.1-0.1,0.1h0.1C82.9,93.1,82.9,93.1,82.9,93z"/>
		<path class="st1" d="M92,115.2c-0.1,0-0.2,0-0.2,0c0.2,0.1,0.4,0.2,0.5,0.3c0-0.1-0.1-0.2-0.1-0.4C92.1,115.1,92,115.2,92,115.2z"
			/>
		<path class="st1" d="M120.7,106.3c0.4-0.1,0.9-0.1,1.3-0.2C121.6,106.2,121.1,106.2,120.7,106.3
			C120.7,106.2,120.7,106.2,120.7,106.3z"/>
		<path class="st1" d="M123.6,95.1c-0.2,1.8-0.7,3.5-2.4,4.4c-0.7,0.4-1.7,0.8-2.8,0.9l0.1,0.1c1-0.2,2,0,3-0.1
			c1.1-0.7,2.2-1.6,2.5-2.9c0-0.2,0.1-0.5,0.1-0.8c0-0.1,0-0.1,0-0.2c0-0.1,0-0.1,0.1-0.2c0-0.1,0-0.1,0-0.2c0-0.2,0.2-0.3,0.3-0.3
			C124.2,95.6,123.9,95.3,123.6,95.1L123.6,95.1z"/>
		<path class="st1" d="M25.6,58.9c-0.1-0.1-0.1-0.2-0.2-0.3c0.1,0.3,0.2,0.6,0.3,0.9C25.7,59.2,25.6,59.1,25.6,58.9z"/>
		<path class="st1" d="M126.9,99.3c-0.1-0.1-0.1-0.1-0.2-0.2c-0.4-0.8-0.9-1.7-1.5-2.4c0.3,1.3,0.5,2.7-0.1,3.8
			C125.8,100.2,126.4,99.8,126.9,99.3z"/>
		<path class="st1" d="M119.1,94.6c-0.2,0.1-0.3,0.2-0.5,0.4c0.5,0,1-0.1,1.4-0.3C119.7,94.6,119.4,94.6,119.1,94.6z"/>
		<path class="st1" d="M127.7,99.3c0,0.1,0.1,0.2,0,0.4c-0.3,0.6-0.7,1.1-1.1,1.6c0.2,0.1,0.3,0.4,0.2,0.6c-0.1,0.2-0.3,0.4-0.4,0.6
			c0.4-0.2,0.9-0.4,1.3-0.6c0.3-0.1,0.5,0.1,0.4,0.4c-0.2,0.5-0.5,0.9-0.9,1.4v0.1c0.7-0.6,1.2-1.4,1.5-2.2c0-0.1,0.1-0.2,0.2-0.3
			c-0.2-0.7-0.6-1.5-1-2.1C127.9,99.2,127.8,99.3,127.7,99.3z"/>
		<path class="st1" d="M119.1,96.5L119.1,96.5c-0.5,0.1-1,0.2-1.6,0.2l0,0c0.4,0,0.9,0,1.2-0.1C118.9,96.5,119,96.5,119.1,96.5z"/>
		<path class="st1" d="M119.2,98.3c0.3,0,0.5-0.1,0.8-0.2c1.5-0.5,2.5-1.6,2.9-3.1c0-0.1,0.1-0.2,0.2-0.2c-0.2-0.1-0.4-0.2-0.6-0.3
			c0,0-0.1,0.1-0.2,0.1s-0.2,0-0.2,0v0.1c-0.5,1.4-1,2.7-2.5,3.4C119.5,98.1,119.4,98.2,119.2,98.3z"/>
		<path class="st1" d="M113.7,98.3c-0.2,1.2-0.3,2.5-0.1,3.7c0.1-0.1,0.2-0.2,0.3-0.2c0-1.8,0.3-3.7,1.1-5.4
			c0.1-0.2,0.2-0.4,0.3-0.6C114.5,96.4,113.9,97.2,113.7,98.3z"/>
		<path class="st1" d="M116.7,105.7v0.1c0.3,0.2,0.6,0.3,0.9,0.4C117.3,106,117.1,105.9,116.7,105.7
			C116.8,105.7,116.8,105.7,116.7,105.7z"/>
		<path class="st1" d="M151,118c0.5-0.2,1-0.3,1.5-0.4c3.9-0.4,3.5-4.3,4.4-7.3c0.4-1.2,1.3-2.5,1.5-3.8c0.3-2-0.4-3.1-1-4.6
			C155.9,107.4,153.8,112.8,151,118z"/>
		<path class="st1" d="M22.5,59.9c-0.4-0.8-0.7-1.6-0.8-2.5c-0.1-0.3-0.1-0.5-0.2-0.8c0,1.1,0.2,2.1,0.8,3.1
			C22.4,59.7,22.5,59.8,22.5,59.9z"/>
		<path class="st1" d="M27.3,128c-0.6-0.7-1.1-1.4-1.7-2.2c0.5,0.8,1,1.6,1.7,2.3c0.1,0.1,0.3,0.3,0.4,0.4l0,0
			c0.1,0.1,0.3,0.2,0.4,0.3C27.8,128.6,27.5,128.3,27.3,128z"/>
		<path class="st1" d="M150.6,48.6c-0.9-1.1-1.5-2.5-2.2-3.7c-0.9-1.7-1.6-3.5-2.4-5.3c0-0.1,0.1-0.2,0.1-0.1c1.2,1.2,2.1,2.6,3,4
			c-0.6-1.5-0.5-2.8-0.1-4.8c0.9-3.8-2.3-5.7-4.8-7.9c-2-1.7-5.5-9.3-8.2-9c-1.5,0.2-2.7,0.5-3.9,0.3c0.7,0.8,1.5,1.5,2,2.5
			c0.4,0.9,0.8,1.8,1.3,2.6c0.1,0.2-0.1,0.5-0.3,0.3c-1.7-1.2-2.7-2.8-4.2-4.3c-0.3-0.3-0.5-0.5-0.8-0.8l0,0
			c-13.5-10.9-30.6-17-48.1-17c-4.6,0-9.1,0.4-13.6,1.2c0,0,0,0.1-0.1,0.1c-0.8,0.7-1.6,0.5-2.7,0.8c-1.1,0.2-2.2,0.4-3.4,0.6
			c-1.4,0.2-2.9,0.7-4.2,1.3c-0.1,0.1-0.3,0-0.3-0.2c0.2-1.4,2.1-1.9,3.2-2.2c0.5-0.1,1.1-0.4,1.8-0.6V6.3c-1,0-2-0.3-3.2-1
			c-4.4-2.5-6.3,1.1-9.9,2.8c-2.8,1.3-10,2.7-10.2,6.1c-0.1,1.1-0.2,2.1-0.6,3c0,0,0,0,0.1,0c1.5-0.8,3-2.9,4.8-2.4
			c0.3,0.1,0.3,0.5,0,0.6c-1,0.3-1.5,1.4-2.2,2.1c-0.6,0.6-1.4,1.1-2.2,1.6c-1,0.6-2,1.1-2.9,1.9c-0.6,0.5-0.9,0.9-1.6,1.1
			c-0.1,0-0.2,0-0.3,0C16.6,36.5,6,58.3,6,81.4c0,0.9,0,1.9,0.1,2.8H6c0.1,1.2,0.1,2.4,0.3,3.6c0.3,1.7-0.1,3.7,0.6,5.3
			c0.2,0.4-0.3,0.7-0.6,0.3c-1-1.6-1.1-3.5-1.5-5.3c-0.2-0.8-0.4-1.7-0.5-2.6c-0.2,0.4-0.5,0.8-0.9,1.2C0,90.6,3.2,93.1,4.1,97
			c0.6,2.7,0.4,10.3,3.5,11.1c0.8,0.2,1.6,0.5,2.3,0.8c-0.6-1.3-1.3-2.5-0.9-3.9c0.1-0.3,0.5-0.3,0.6,0c0.4,1.7,1.5,3.3,2.3,4.9
			c0.5,1.2,1.4,2.4,1.3,3.7C25.7,140,52.7,157.3,82,157.3c4.4,0,8.7-0.4,13-1.1v0.1c0.4,0,0.7-0.1,1-0.2c1.7-0.4,3.6-1.1,5.3-1
			c0.3,0,0.4,0.4,0.1,0.5c-1.1,0.7-2.3,1.2-3.5,1.7c0.6,0.3,1.2,0.6,1.7,1.2c2.5,2.5,5.4-0.4,8-1.5c1.9-0.8,4.6-1,5.8-3
			c0.6-1,1.1-2,1.7-2.9c-0.2,0.1-0.4,0.1-0.6,0.2c-1.4,0.4-2.9,0.5-4.3,0.8c-0.1,0-0.3-0.1-0.2-0.2c0.4-1.6,2.5-1.3,3.7-1.7
			c0.5-0.2,0.9-0.3,1.4-0.5l0,0c26.4-12.8,42.7-39,42.7-68.3C158,70,155.4,58.7,150.6,48.6z M136.5,37c1.6-0.5,3-0.1,4.3,0.8
			c1.6,1.1,2.2,3,3.8,4.2c0.4,0.3,0,0.9-0.4,0.7c-1.7-1-2.9-3-4.6-3.8c-1.4-0.7-3.3-0.8-4,1c-0.8,1.7,0.3,2.6,0.5,4.1
			c0.1,0.4-0.3,0.8-0.7,0.5C132.7,42.6,133.4,38,136.5,37z M127.9,66.6c2.5-2.3,5,0.5,5.4,3c0,0.3-0.3,0.6-0.5,0.3
			c-0.6-0.7-0.9-1.8-1.6-2.4c-1.3-1.1-2.8,0.5-3.1,1.7c-0.3,1.4-0.3,2.9,0.4,4.2c0.6,1.3,1.5,2.8,2.7,3.6c1.9,1.2,1-3.7,0.8-4.5
			c-0.1-0.4,0.4-0.9,0.8-0.6c2.1,1.5,2.7,6.7-0.5,7.5c-2.5,0.6-4.6-3.3-5.4-5.1C125.8,71.9,125.8,68.5,127.9,66.6z M122,29.2
			c-0.8,5-7.9,3-10.8,1.8c-3.5-1.4-10.2-5.3-11.5-9.3c-0.4-1.4-0.3-3,1.2-3.8c2.8-1.5,4.3-0.6,7.2,0.2c0.5,0.1,0.3,0.8-0.2,0.7
			c-1.1-0.2-2.3-0.4-3.4-0.5c-0.4,0.2-0.8,0.4-1.2,0.6c0.1,0,0.2,0,0.3,0.1c0.4,0.3,0.6,0.5,1.2,0.8c0.2,0.1,0,0.3-0.1,0.3
			c-2-0.4-0.7-0.1-0.7-0.1c0,0.4,0.1,0.8,0.2,1.2c0.1,0.3,0.2,0.6,0.4,0.8c-0.1-0.4-0.2-0.8-0.1-1.2c0.1-0.4,0.7-0.3,0.7,0.1
			c0.1,1,0.8,1.9,1.6,2.6c-0.8-0.9-1.4-2-1.6-3.1c0-0.3,0.4-0.5,0.5-0.2c0.4,0.8,0.9,1.5,1.5,2.2c0-0.2,0.3-0.4,0.5-0.2
			c0.7,0.7,1.5,1.5,2.3,2.1c-0.3-0.3-0.5-0.5-0.8-0.8s0.2-0.8,0.5-0.5c0.9,0.8,1.8,1.5,2.8,2.2c0.1,0.1,0.3,0.2,0.5,0.3
			c-0.2-0.2-0.4-0.3-0.5-0.4c-0.8-0.6-1.5-1.2-2.1-2c-0.2-0.3,0.1-0.6,0.4-0.6c-0.2-0.5,0.5-0.9,0.8-0.4c0.2,0.4,0.6,0.7,0.9,1
			c1.8,0.9,3.8,2.5,3.7,4.5c0,0.3-0.2,0.6-0.6,0.7c-3.2,0.8-6.8-0.9-9.5-2.6c-2.1-1.4-3.7-3.4-3.5-6c0-0.1,0.1-0.2,0.1-0.3
			c-1.9,1.2-2.1,2.4-0.6,3.8c0.8,0.9,1.7,1.7,2.7,2.4c2.4,1.8,4.9,3.6,7.7,4.5c1.5,0.5,3.3,1.1,4.8,1c2.8-0.2,2.9-3.5,1.2-5.2
			c-1.8-1.9-3.9-3.1-6.2-4.5c-0.6-0.4-0.2-1.3,0.5-1.1C116.3,20.6,122.6,25.2,122,29.2z M104.3,72.3c-4.5,0.9-10.7,0.5-14.2-3
			c-1.9-1.9-3.5-7.2-0.2-8.6c0.4-0.2,0.7,0.3,0.6,0.6c-0.2,1.6-0.8,3.5-0.1,5.1c-0.2-0.8-0.2-1.6,0.2-2.3c1.3-2.6,3.9-2.5,6.3-1.9
			c0.3,0.1,0.3,0.5,0,0.6s-0.6,0.1-0.9,0.1c0.1,0.6-1.1,1.1-1.2,1.5c-0.2,1.3,1.8,2.2,2.8,2.6c1.1,0.5,2.4,0.3,3.5,0.7
			c0.2,0.1,0.4,0.5,0.1,0.6c-0.4,0.2-0.8,0.3-1.1,0.4c1.2,0,2.5-0.1,3.2-0.6c0.3-0.2,0.6,0,0.4,0.3c-0.8,1.7-2.8,2.1-4.7,2v0.1
			c1.5,0.2,3.1,0.2,4.5-0.3s1.7-1.6,2.8-2.4c0.2-0.2,0.5-0.1,0.5,0.2c0.2,1.9-0.7,3.1-2.2,3.7C104.6,71.9,104.5,72.2,104.3,72.3z
			 M94.7,73.2c-1.4,0.5-2.8,0.1-4-0.7c-0.9-0.6-2.5-1.9-2.1-3.2c0.1-0.2,0.3-0.4,0.5-0.3c0.5,0.2,0.7,0.6,1.1,1
			c0.5,0.5,0.9,1,1.5,1.3c1,0.5,2,0.9,3,1.3C95.1,72.7,95,73.1,94.7,73.2z M100.1,15.3c0.4,0,0.4,0.6,0,0.6
			c-2.9,0.2-3.4,3.5-2.1,5.5c0.7,1.2,1.6,2.2,2.7,3.1c1.6,1.3,3.6,2.3,4.9,3.9c0.2,0.2-0.1,0.4-0.3,0.4c-3.5-0.9-7.1-4.3-8.7-7.4
			C95.2,18.7,96.8,15.2,100.1,15.3z M98.3,14L98.3,14C98.2,14,98.2,14,98.3,14z M74.6,10.1c2.7-1.9,6-2,9.2-1.8
			c3.1,0.2,6.4,0,9.3,1.1c0.7,0.3,1.5,0.7,2.3,1c0.3,0,0.7,0,1.1,0.1c0.2,0,0.3,0.4,0.1,0.5c0.8,0.4,1.7,0.7,2.5,0.9
			c2.1,0.4,4.1,0.5,6.2,0.8c3.2,0.4,6.5,1.4,9.6,2.4c0.7,0.2,0.4,1.3-0.3,1.2c-3.9-0.8-7.9-1.9-11.9-2.2c-2.4-0.2-4.5-0.6-6.7-1.6
			c-0.6-0.3-1.2-0.5-1.9-0.7c-0.8,0.1-1.7,0-2.8-0.2c-2.7-0.5-6.5-1.5-8.9,0.5c-0.3,0.3-0.8-0.2-0.5-0.5c0.7-0.7,1.4-1.1,2.2-1.4
			c-0.1,0-0.3,0-0.4,0c-3.2-0.2-5.9,0.7-8.9,1C74.3,11.2,74.2,10.4,74.6,10.1z M74.7,35.6c0.2-0.2,0.6,0,0.5,0.3
			c-0.9,2.9-2.8,6.4-1.1,9.3c0.3,0.4,0.6,0.8,0.9,1.2c-1.2-2.6-0.7-6.5,1-8.6c1-1.2,4.4-4.8,6.3-3c0.1,0.1,0.1,0.2,0,0.3
			c-0.7,0.7-1.2,0.6-2.1,1.1c-1,0.5-2.1,1.7-2.7,2.6c0,0.1-0.1,0.1-0.1,0.2l0,0c0.1-0.1,0.1-0.2,0.2-0.3c0.9-1.2,2.1-2.1,3.5-2.4
			c1.5-0.3,2.2,0.5,3.1,1.4c0.2,0.2-0.1,0.6-0.3,0.4c-0.5-0.3-1.1-0.5-1.6-0.4c0.6,0.3,1.2,0.8,1.6,1.7c0.1,0.3-0.1,0.5-0.4,0.4
			c0.2,0.3,0.3,0.7,0.4,1.2c0.2,1.4-0.2,3.2-1.5,4c-0.4,0.2-0.9,0.4-1.3,0.4c0.3,0,0.6,0.1,0.9,0.2c0.1,0.1,0.2,0.2,0.1,0.4
			c-1.4,1.3-4.1,1.6-5.7,0.4l-0.1-0.1c0,0.1,0,0.3,0,0.4c0,0.2-0.2,0.4-0.3,0.5c1.2,0.8,2.6,1.2,4,1.3c0.5-0.5,0.9-0.5,1.7-0.8
			c1.5-0.6,2.7-1.8,3.3-3.3c0.8-2,0.4-3.6,0.1-5.6c-0.2-0.9-0.2-0.8,0-1.6c0.1-0.3,0.5-0.3,0.5,0c0.5,2.9,1.9,6.3,0,9.1
			c-0.3,0.5-0.7,1-1.2,1.5c0.1,0,0.2-0.1,0.3-0.1c0.4-0.2,0.8,0.3,0.4,0.6c-3.2,2.8-9.5,2.5-12-1.2C70.9,43.7,71.8,38.4,74.7,35.6z
			 M92.4,116.3l-0.1,0.1c-0.5,0.1-0.9-0.2-1.4-0.2s-1,0-1.3,0.4s-0.9,0.1-0.7-0.4c0.3-0.6,0.8-1,1.4-1.1c-0.7-0.1-1.4-0.2-1.8,0.3
			c-0.1,0.1-0.3,0.1-0.4,0c-0.2,0.2-0.5,0.2-0.6-0.1c-0.2-0.3-0.3-0.7-0.3-1.1c-0.2,0-0.3-0.1-0.3-0.3c-0.1-0.7,0.3-1.6,0.8-2.1
			c0.1-0.2,0.3-0.3,0.5-0.5c-0.5,0.1-1,0.2-1.4,0.6c-0.7,0.9-0.9,2.9-0.4,3.9c0.2,0.4-0.2,1.1-0.7,0.7c-0.8-0.6-1-1.5-0.9-2.5
			c0.1-0.7,0.1-1.6,0.4-2.4c-0.1,0-0.1,0-0.2,0c-0.3,0.3-0.4,0.7-0.5,1.1c-0.2,1-0.7,3.3,0.2,4c0.3,0.2,0,0.7-0.3,0.5
			c-0.8-0.3-1.3-0.9-1.3-1.8c-0.1-0.8-0.1-1.9,0-2.8c-0.2,0.2-0.3,0.5-0.5,0.8c-0.7,1.6-0.8,3.3,0.6,4.5c0.3,0.3-0.1,0.8-0.4,0.6
			c-2-1.2-2.2-3.5-1.4-5.6c0.1-0.3,0.3-0.7,0.6-1.1c-0.3,0.1-0.7,0.2-1,0.3c-0.5,1.8-1.2,3.3-0.3,5.2c0.5,1,1,2.3,2,2.8
			c0.2,0.1,0.2,0.4-0.1,0.5c-1.7,0.4-2.8-1.5-3.3-2.9c0,0.3-0.1,0.6-0.2,0.8c-0.1,0.3-0.4,0.4-0.6,0.4c0.8,1.4,2,2.4,2.9,3.9
			c0.2,0.3-0.1,0.7-0.4,0.7c-0.4,0-0.9-0.1-1.3-0.2c0,0.2-0.3,0.4-0.5,0.4c-3.1-0.7-6.1-4.7-5.2-8c1-3.5,4.4-6.1,7.9-6.8
			c1.4-0.2,3.1-0.4,4.8-0.2c0.3,0,0.6,0,0.8,0.1c1.8,0.3,3.5,1,4.6,2.4c2.4,2.9,3.1,6.4,0.2,9.1c-0.3,0.3-0.8-0.1-0.6-0.5
			C92.3,118.7,92.5,117.4,92.4,116.3z M84,96.9c-2.6,1.3-6.1-2-5.5-4.6c0.1-0.6,0.9-0.5,1.1,0c0.2,0.4,0.7,1.3,1.3,2.1l0,0
			c-0.2-0.1-0.3-0.4-0.2-0.6c-0.3-0.4-0.4-0.8-0.5-1.2c-0.1-0.6,0.8-0.6,1-0.1c0.1,0.2,0.2,0.4,0.3,0.5c0-0.3,0-0.6,0.1-0.9
			c0-0.1,0.1-0.2,0.2-0.3l0,0c-0.5-0.5-1-0.8-1.7-0.9c-0.5-0.1-0.6-0.6-0.3-0.8c-0.1,0-0.1,0-0.2,0c-0.3,0-0.6-0.1-0.9,0
			c-0.2,0-0.3,0.1-0.5,0.1c-0.3,0-0.4-0.5-0.3-0.7c0.2-0.3,0.6-0.6,1-0.7c0.4-0.1,0.8-0.1,1.3-0.1h-0.1c-0.8-0.2-1.8-0.5-2.6-0.2
			c-1.1,0.5-0.6,2,0.1,2.6c0.4,0.3-0.1,0.8-0.5,0.6c-1.2-0.6-1.9-1.9-1.6-3.2c0.2-1.3,2-1.8,3.1-1.7c2.3,0.2,6.1,1.5,6.9,4
			C85.7,92.2,86.1,95.9,84,96.9z M65.8,96.5c-0.4,0.9-1.1,1.4-1.8,1.8c-0.2,0.5-0.7,0.9-1.2,1.1c-0.6,1-2.4,1-3.3,0.4
			c-1.2-0.8-1.9-2.2-2.1-3.6c0-0.2-0.1-0.5-0.1-0.8c-0.2-0.8-0.2-1.5,0.3-2.1c0.2-0.4,0.4-0.8,0.7-1.1c0.7-0.6,1.6-1.2,2.6-1.2
			c1,0.1,1.8,0.6,2.7,0.9c0.4,0.1,0.3,0.8-0.2,0.7s-1.2-0.2-1.9-0.1c0,0.2-0.1,0.4-0.3,0.5s-0.4,0.1-0.5,0.2
			c0.1-0.1-0.1,0.1-0.1,0.2c-0.1,0.4,0,0.9,0.1,1.3c0.1,0.4,0.3,0.9,0.6,1.3c0.2,0.2,0.8,0.4,1,0.3c0.2-0.1,0.6,0.1,0.4,0.4
			c-0.1,0.2-0.2,0.4-0.3,0.5c1,0,2.1-0.2,2.8-0.9C65.6,95.8,66,96.2,65.8,96.5z M26.5,94.4c0,0.5-0.7,0.6-0.9,0.3
			c-0.4-0.6-0.8-1.3-1-2.1c-0.1-0.1-0.2-0.1-0.3-0.2c-2.2-2.8-1-8.8,1.7-11c3.2-2.7,7.1-4.4,11.2-3.1c0.2,0.1,0.3,0.5,0,0.5
			c-2.2,0.3-4.3,0.7-6.3,1.7c1.2-0.3,2.5-0.4,3.8-0.3c0.4,0,0.4,0.6,0,0.6c-3.5,0.5-7.7,2.3-8.5,6.1C25.5,89.5,26.6,91.8,26.5,94.4z
			 M27.9,91c0.1-1.4,0.4-2.7,1-3.6c0.5-1.4,1.5-2.6,3.2-3.4c4.4-1.9,10.3,0.5,10.7,5.8c0.2,1.8-0.7,4-2,5.5c1-0.5,1.8-1.3,2.3-2.4
			c1.3-2.7,0.4-5.7,0.4-8.6c0-0.2,0.3-0.2,0.3,0c0.8,2.2,1.6,5,1.4,7.4c0.6-1.6,0.7-3.3,0.7-5.2c0-0.6,0.9-0.9,1.2-0.3
			c3.9,7.6-6.1,14.4-12.9,12.3C30.7,97.5,27.6,94.9,27.9,91z M44.1,68c-0.2-2.7,1.8-6.2,4.8-5.9c0.4,0,0.4,0.6,0,0.7
			c-2,0.2-3.8,2.8-3.6,4.8c0.1,1,0.5,2.2,1.3,2.8c0.8,0.7,1.6,0.5,2.5,0.5c0.2,0,0.4,0.3,0.3,0.5C47.4,74.2,44.3,70.2,44.1,68z
			 M48.7,43.2c-0.8,1.9-1.8,3.9-4.1,3.4c-0.2,0-0.1-0.2,0-0.3c2.1-0.2,2.7-3,3.4-4.6c0.6-1.4,1.6-2.7,2.7-3.7
			c2.1-2.1,5.4-4.1,8.5-3.1c0.4,0.1,0.4,0.7,0,0.8c-2.6,0.7-4.9,0.8-6.9,2.7C50.6,39.8,49.5,41.3,48.7,43.2z M64.3,20.5
			c0.4,1.4-0.7,2.8-1.7,3.7c-0.7,0.6-1.4,1.2-2.2,1.6c-0.5,0.3-1.1,0.7-1.6,0.5c-0.2-0.1-0.3-0.3-0.2-0.5c0.2-0.5,0.9-0.7,1.3-1
			c0.6-0.4,1.2-0.8,1.8-1.2c1-0.8,2-1.8,2.2-3.2C63.9,20.3,64.2,20.3,64.3,20.5z M46,19.1c2-1.1,4.3-3.5,6.8-2.1
			c1,0.6,1.7,1.6,1.8,2.6c0.7-1.4,0.9-2.7-1.1-2.8c-0.1,0-0.1-0.1,0-0.1c1.8-0.5,2.3,1.1,2.4,2.6c0,2.1-2.3,3.9-3.9,4.9
			c-3,1.7-9.2,5.8-12.3,2.7C36.5,24,44.3,20,46,19.1z M32.2,30.7c1.6,0.7,3,1.6,4.6,2.2c-0.7-0.5-0.1-1.5,0.7-1.1c0,0,0.1,0,0.1,0.1
			c-0.1-0.2,0-0.4,0.2-0.5c0.1,0,0.2-0.1,0.2-0.1c-2.2-0.2-3.7-1.3-2.6-4.2c0.1-0.3,0.5-0.3,0.6,0c1.5,6,11.1,1.1,14.4-0.7
			c3.2-1.8,8.9-4,9.8-7.8h0.1c0.3,1.5-0.1,2.6-0.9,3.5c2.2-1.5,4.9-3.4,2.1-4.6c-1.5-0.7-3.3-1-4.9-1.2c-2.2-0.3-5-0.8-7.2-0.5
			c-0.1,0-0.2-0.1-0.1-0.2c2.5-1.1,6-0.7,8.6-0.2c2,0.3,4.2,0.6,5.6,2.1c2.8,2.9-4.2,5.9-5.8,6.6c-0.1,0.1-0.3,0-0.3-0.1
			c-3,2.2-6.3,4.2-9.7,5.6c-1,0.4-3.2,1.1-5.5,1.6c1.8-0.1,3.8-0.3,5.3-1.3c0.2-0.1,0.3,0.2,0.2,0.3c-0.6,0.5-1.3,0.9-1.9,1.2
			c0.3,0,0.7-0.1,1-0.2c2.3-0.7,4.2-2.1,6.4-3c0.2-0.1,0.3,0.2,0.2,0.3c-1.9,1.7-4,2.9-6.2,3.6c0,0,0,0,0.1,0s0.2-0.1,0.3-0.1
			c2.4-0.8,5-1.6,7-3.2c1.5-1.1,2.7-2.6,4.2-3.7c0.1-0.1,0.3,0.1,0.2,0.2c-1.6,1.7-2.7,3.6-4.7,5c-2.3,1.5-4.8,2.8-7.4,3.7
			c-4.6,1.5-9.5,2.6-13.6-0.5c-0.1-0.1-0.2-0.2-0.2-0.3c-0.5-0.4-0.9-0.8-1.3-1.3C30.9,31.1,31.5,30.4,32.2,30.7z M20.8,52.6
			c0.2-0.6,0.5-1.1,0.9-1.6c1.6-2.2,4.3-4.2,7-2.5c0.1,0,0,0.2,0,0.2c-1.1,0-2.2,0.3-3.1,0.7c0.1,0.2,0,0.5-0.4,0.6
			c-0.3,0-0.7,0.5-1,1.2c0.1,0,0.3,0,0.4,0c0.5,0.1,0.5,0.7,0,0.8c-0.2,0-0.3,0.2-0.4,0.6c0.3,0,0.5,0.5,0.2,0.7
			c-0.1,0.1-0.3,0.2-0.4,0.4c0,0.2,0,0.4-0.1,0.7c0.1-0.3,0.3-0.5,0.5-0.6c0-0.1,0.1-0.2,0.2-0.3c0.1-0.8,0.2-1.7,1-1.8l0,0
			c0,0,0,0,0-0.1c0.3-0.4,0.8,0,0.6,0.3c-0.3,0.6-0.6,1.1-0.8,1.7c0,0,0,0,0.1,0c0.5,0.1,0.4,0.9-0.1,0.9c-0.1,0-0.1,0-0.1,0
			c0,0.7,0.1,1.4,0.1,2.1c0,0,0.1,0.1,0.1,0.2c0-0.9,0.2-1.8,0.5-2.6c0.1-0.3,0.4-0.3,0.6-0.2l0,0c0.3-0.4,1,0.1,0.7,0.6
			c-0.6,0.9-0.5,2-0.2,3.1c0.1,0,0.2,0,0.3,0.1c-0.1-0.7-0.1-1.4,0-2.1c0-0.5,0.7-0.5,0.7,0c0,0.2,0,0.3,0,0.5c0.1,0,0.2,0,0.4,0
			v-0.1c0-0.1,0-0.2,0.1-0.2c-0.1-0.3-0.1-0.6-0.1-0.9c0-0.6,0.8-0.6,1-0.1c0.1,0,0.3,0,0.4,0.1c0.1-0.1,0.3-0.2,0.5-0.1
			c0.1-0.2,0.3-0.3,0.5-0.3c0-0.1,0-0.1,0-0.2c0.1-0.5,0.9-0.7,1-0.1c0.4,2-0.2,4.6-1.4,6.6c0,0.1,0,0.2-0.1,0.3
			c-0.2,0.7-0.5,1.4-1,1.9c-0.2,0.2-0.4,0.5-0.7,0.7c-0.8,1-2.5,1.3-3.7,1.1c-2-0.3-3.1-1.9-3.9-3.7C20,58.7,19.4,54.7,20.8,52.6z
			 M16.9,57.3c0.2-0.5,1-0.2,1,0.3c0.1,1.8-0.2,3.6,0.8,5.2c0.7,1.2,1.6,2.2,2.8,2.9c2.4,1.5,5.1,1.8,7.4-0.1c0.2-0.1,0.5,0,0.3,0.3
			C24.8,72.4,13.9,63.7,16.9,57.3z M11.1,91.6c-0.2-1.2,0.6-2.6,0.4-3.8c-0.3-1.9-1.3-3.5-1.8-5.3c-0.6-1.8,0.6-4.2,1.2-5.8
			c0.1-0.2,0.5-0.2,0.4,0.1c-0.6,2.6-1.2,4.9,0.1,7.4c0.6,1.2,0.9,2.1,1.1,3.4c0.4,2.7-0.7,4.7,0.8,7.3c0.4,0.7,3.1,3.9,3.1,1.4
			c0-0.9,0-1.7-0.1-2.6c0-0.8,0-1.6-0.1-2.4c-1.1-1.5-1.5-1.5-1.4-0.2c0.1,0.6,0.2,1.1,0.3,1.7c0.2,0.4-0.3,0.9-0.7,0.5
			C13,91.9,14,89.6,14.6,88c0.1-0.2,0.3-0.3,0.5-0.3c3.4,0.9,3.9,12.2,0.7,11.3C12.9,98.4,11.6,94.2,11.1,91.6z M23.9,127.2
			c-0.8-1-1.8-2.2-2.8-3.5c-0.6-0.7-1.2-1.4-1.7-2.1c-1.5-1.7-3.4-3.8-3.8-6.2c-0.4-2.7,0.9-8.5,4.7-6c0.2,0.1,0.1,0.4-0.1,0.4
			c-2.9,0.3-3.3,2.6-2.9,4.7c0.1-1.3,0.6-2.6,2-3c1.8-0.5,2,1,3.1,2c0.2,0.2-0.1,0.6-0.3,0.4c-1.9-1.1-3.4,0.1-3,2.1
			c0-0.4,0-0.7,0-1.1c0-0.4,0.7-0.6,0.7-0.1c0.2,1.4,0.6,2.6,1,3.8c-0.1-0.7-0.2-1.5-0.1-2.2c0.1-0.4,0.6-0.5,0.7-0.1
			c0.6,2.4,1.5,4.5,2.6,6.6c-0.1-0.2-0.2-0.4-0.2-0.6c0-0.1,0-0.2,0.2-0.3c-0.5-1.5-0.9-3.1-1-4.9c0-0.1,0.2-0.2,0.3-0.1
			c0.5,0.9,0.9,1.9,1.3,2.9c0.9,1.2,1.2,2.7,2.2,3.9c0.1,0.2,0.3,0.3,0.4,0.5c-1.1-1.4-2.1-3.1-2.1-4.7c0-0.3,0.4-0.4,0.5-0.1
			c0.5,0.8,0.9,1.5,1.4,2.3c-0.1-0.2,0-0.4,0.2-0.5c-0.4-0.5-0.8-1.1-0.9-1.8c0-0.3,0.4-0.5,0.5-0.1c0.3,1,1.2,1.6,1.9,2.2
			c0.1,0,0.2,0,0.3,0.1l0,0c-1.2-1.7-2.4-3.2-3.7-4.9c-0.2-0.2,0.2-0.5,0.4-0.4c3.4,2.3,9.7,8.7,8.4,13.5
			C32.6,135.1,25.5,129.2,23.9,127.2z M39.1,130.5c-0.3,2.7-3.9,7.1-6.7,4.4c-0.1,0-0.1-0.1-0.1-0.2c-1.7-0.3-3.3-1.1-3.9-2.3
			c-0.2-0.4,0.2-0.8,0.6-0.6c1.9,1.2,4.1,2.3,6.4,1.3c2.9-1.2,0.2-5.5-0.6-7c-2-3.8-4.4-7.4-7.1-10.8c-0.1-0.1,0-0.3,0.2-0.2
			c2.9,2.2,5,5.1,6.8,8.3c1.1,2,2.5,4.1,3,6.4c0.1-0.5,0.1-1,0-1.5c-0.2-2.7-1.6-6.3-3-8.6c0,0,0-0.1,0.1-0.1
			C36.9,122.6,39.5,126.6,39.1,130.5z M39.2,109.8c0-0.2,0.3-0.4,0.4-0.2c0.7,1.2,1.2,2.6,1.9,3.8c1.3,1.9,3,2.4,5.1,3.1
			c2.5,0.8,4.5,2.1,6.1,4.1c0.4,0.5-0.3,1.2-0.7,0.7c-1.7-1.7-3.3-3.1-5.7-3.8c-1.2-0.4-2.7-0.7-3.7-1.5
			C40.6,114.6,39.7,112.2,39.2,109.8z M45.7,119.2c-0.2-0.1-0.2-0.4,0.1-0.4c1.5,0,2.3,0.6,3.4,1.5c2.6,2.1,5.8,2.1,8.8,3.2
			c1.1,0.4,2.4,1,3.6,1c3.3-0.1-0.3-4.1-0.7-4.5c-0.9-0.7-2.1-1.8-3.3-1.9c-2.2-0.3,0.3,1.9,1.1,2.1c0.7,0.2,0.4,1.2-0.3,1.1
			c-1.2-0.2-4.5-2.9-2.4-4.1c2.4-1.4,6.7,2.1,7.7,4.2c1.2,2.5,0.2,5-3,4.3c-2.6-0.6-5.5-1.3-8-2.3C50,122.4,48.2,120.2,45.7,119.2z
			 M53.7,136.1c0.2-2,1.7-4.5,4-4.5c0.3,0,0.5,0.2,0.6,0.5c0.9-0.5,1.8-0.8,2.9-0.3c0.1,0,0,0.1,0,0.1c-2.8,0.1-4.3,3.1-4,5.6
			c0.4,1,0.6,2.1,1.5,2.6c0.8,0.4,1.7,0.4,2.6,0.2c0.2-0.1,0.5-0.2,0.7-0.3c1-0.4,1.8-1,2.4-1.5c0.1-0.1,0.3-0.1,0.4,0
			c0.8-1.1,1.4-2.3,1.7-3.3c0-0.1,0.2-0.1,0.2,0c-0.2,2.9-1.4,5.8-4.2,7.2c-2.1,1-4.4,1.2-6.3-0.3C54.3,140.8,53.5,138.4,53.7,136.1
			z M81.2,154.8c-2.2,0.1-4.3-0.5-6.5-0.9c-2.9-0.5-5.7-0.6-8.6-0.9c-2.3-0.3-6.5-0.8-8.1-3c-1.3-1.9,0.8-2.6,2.5-2.9
			c2.7-0.4,4.6,0.1,6,2.6c0.2,0.4-0.1,0.9-0.5,0.9c-1.2,0-2.5,0.3-3.3-0.7c-0.1-0.1,0-0.3,0.1-0.3c0.7,0,1.3-0.1,2-0.1
			c-1.3-1.5-3.1-2-5.1-1.2s1.1,2.4,1.4,2.6c2.7,1.2,6,1,8.9,1.3c3.9,0.4,7.3,1.1,11,2.5C81.3,154.6,81.3,154.8,81.2,154.8z
			 M72.6,152.2C72.7,152.2,72.7,152.3,72.6,152.2C72.6,152.3,72.6,152.2,72.6,152.2z M93,154.3c-1.6,0.4-3.3,0.3-4.7-0.7
			c-2.5-1.6-5.4-1.8-8.2-2c-3.6-0.2-7.7,0.3-10.6-2.3c-0.3-0.2,0.1-0.6,0.4-0.5c3.9,1.9,8.9,1.2,13.1,1.7c3.6,0.4,6.6,2.2,10.1,3.1
			C93.3,153.7,93.3,154.2,93,154.3z M99.7,143.1c-0.8,2.9-5.8,3.4-8.2,2.7c-2.4-0.6-5-2-5.5-4.6c-0.1-0.4-0.1-0.8,0-1.2
			c0-0.4,0-0.8,0-1.2c0.1-0.8,0.8-2.1,1.7-3c0.2-0.2,0.3-0.3,0.5-0.5c2.4-1.7,5.8-0.5,8.3,0.6c0.2,0.1,0.4,0.4,0.5,0.7
			c0.7,0.4,1.3,0.8,1.9,1.4c0.4,0.4-0.1,1-0.5,0.7c-1.4-0.8-3.3-1.3-5-1.3c0.1,0.3,0.2,0.5,0.5,0.6c0.4,0.2,0,0.8-0.3,0.6
			c-0.2-0.1-0.3-0.2-0.5-0.4c-0.6,0.2-1.3,0.2-1.8-0.3c-0.1-0.1-0.2-0.1-0.2-0.2H91c0.1,0.1,0.2,0.2,0.4,0.3
			c0.4,0.3,0.8,0.6,1.2,0.9c0.3,0.2,0.7,0.6,1,0.7c0.1,0,0.2,0.2,0,0.3s-0.4,0.3-0.7,0.3c-0.3,0-0.7,0-1,0c-0.7,0-1.5-0.5-2-1
			c0.1,0.5,0.4,0.8,0.8,1.1c0.7,0.3,1.6,0.9,2.4,1c0.2,0,0.3,0.2,0.3,0.3c1.3-0.2,2.6-0.4,3.7,0.1c0.4,0.2,0.3,0.7,0,0.9
			c-1.3,0.7-3.2,1.2-5,1.2c0.9,0.2,1.9,0.3,2.7,0.1c1.6-0.4,3-1.6,4.6-1.4C99.6,142.6,99.7,142.9,99.7,143.1z M86.6,75.1
			c-2.4-2.7-4.1-9.3-0.6-11.7c0.2-0.1,0.4,0.1,0.3,0.3c-2.1,4.8,0.1,11.1,5.3,12.8c1.9,0.6,3.9,0.6,5.9,0.7
			c-1.4-0.7-2.7-1.5-3.8-2.3c-0.3-0.2,0-0.7,0.3-0.5c2.2,1.1,4.8,2.3,7.3,2.4c0.7,0,1.3,0,2,0c-0.1,0-0.3,0-0.4-0.1
			c-1.2-0.3-2.2-1-3.4-1.5c-0.3-0.1-0.2-0.6,0.2-0.6c1.3,0.2,2.5,0.7,3.8,0.6c1,0,2.3-0.5,3.1,0.3c0.2,0.2,0.2,0.5,0,0.7
			c-0.3,0.3-0.8,0.5-1.3,0.6c0.5,0.1,1,0.2,1.5,0.4c0.3,0.1,0.3,0.6,0,0.8c-1.2,0.6-2.5,0.8-3.8,0.8c-0.1,0.2-0.2,0.4-0.4,0.4
			C97.5,80.5,90.2,79.1,86.6,75.1z M131.3,104.3c-0.1,0.5-0.2,1-0.3,1.4c-1.5,4.2-5.4,6.2-9.4,7.5c-0.1,0-0.2-0.1-0.1-0.2
			c2.3-2.1,5.8-3.7,7.2-6.5c0.6-1.2,0.7-2.4,0.6-3.6c-0.3,1.1-0.8,2-1.7,2.8c-0.5,0.4-1.4,0.9-2.3,1.1c-0.1,0.1-0.2,0.1-0.3,0.2
			c-0.1,0.2-0.1,0.3-0.2,0.5c1.1-0.5,2.1-1.1,3.1-1.9c0.4-0.3,1,0.1,0.7,0.5c-2.4,3.6-6.7,5.1-10.5,4.1c-0.1,0-0.1,0-0.2,0
			s-0.2-0.1-0.3-0.1c-1.6-0.5-3-1.3-4.3-2.6c-0.9-0.9-1.8-3-2.2-5.2c0,3.7,3,7.1,6.1,9.8c0.3,0.2,0,0.6-0.3,0.5
			c-1.5-0.5-2.8-1.2-3.9-2.1c0.1,0.2,0,0.4-0.2,0.3c0,0,0,0-0.1,0c0.9,0.6,1.9,1.1,2.8,1.8c0.3,0.2,0.4,0.8-0.1,0.9
			c-5.1,0.9-8.3-6-8-10.2c0.2-3,1.8-8.4,5.2-9.6c0.3-0.2,0.5-0.3,0.8-0.5c2.6-2.1,5.8-3.3,9-2.4c5.2,1.4,9.3,6.2,10.5,11.4
			c0.6,2.6,0.7,5.3-0.6,7.7c-1,1.8-3.6,2.5-5.4,3.2c-0.4,0.2-0.7-0.5-0.3-0.7c2.1-1.1,4.3-2.2,4.8-4.7
			C131.4,106.5,131.4,105.4,131.3,104.3z M120.9,119c4.8,0.4,14-1.4,15-7.3h0.1c-0.1,1.6-0.5,2.9-1.3,4c0,0.1,0,0.2,0,0.2
			c-1.3,3.4-4.6,5.5-7.9,6.7c-5.2,1.8-9.6,0.8-14.5-1.3c-0.2-0.1-0.1-0.4,0.1-0.3c5.8,0.9,11,1.1,15.7-1.1c-2,0.6-4.1,0.8-6,0.7
			c-5.5-0.2-15.3-3.1-15.9-9.9c0-0.2,0.3-0.3,0.4-0.2C110.7,114.7,114.7,118.5,120.9,119z M126.6,128.9c-0.4,1.2-1.1,1.8-2.3,2.2
			c-0.6,0.2-1.3,0.4-2,0.6c-0.5,0.2-0.9,0.4-1.4,0.2c-0.2-0.1-0.3-0.2-0.2-0.4c0.3-0.9,1.6-1,2.4-1.3c1.1-0.3,2.2-0.8,3.1-1.5
			C126.4,128.5,126.7,128.6,126.6,128.9z M136,124.8c-2,4-3.4,7.8-7.6,10c-1.6,0.8-2.9,1.9-4.6,2.5c-2.1,0.7-3.5-0.3-5.9,0.7
			c-2.9,1.3-4.8,4-7.9,4.8c-1.4,0.4-2.4-0.3-2.3-1.6c0-0.1,0.2-0.2,0.2-0.1c2,2.2,4.7-1.7,6.1-2.7c1.7-1.2,4.3-2.8,6.5-2.8
			c3.2,0,7.7-1.6,9.9-4.3c1.9-2.2,3-4.9,5-7C135.7,124,136.2,124.5,136,124.8z M136.8,110.3c-0.1,0.2-0.3,0.2-0.3,0
			c-0.2-5,1.2-12-3-15.9c-4.5-4.2-10.2-5.7-16.3-5.3c-5.8,0.4-11.5,3.4-13.5,9.2c-1.4,4.1-1.7,10.5,0.8,14.3
			c0.2,0.3-0.2,0.6-0.4,0.3c-3.9-3.7-3.3-11.4-1.6-16c2-5.2,7.1-8.9,12.5-9.6c6.2-0.8,14.8-0.1,18.7,5.6
			C136.7,97.2,139,105,136.8,110.3z M143.9,58.1c-4.9,1.4-10.5-6.5-10.9-10.7c0-0.2,0.2-0.2,0.3-0.1c1.2,2.1,2.4,4.4,4.1,6.2
			c1.9,2,3.8,2.7,6.5,3.3C144.6,57,144.5,57.9,143.9,58.1z M144,53.2c-2,0.4-4.4-1.9-5.4-3.3c-1.5-2.2-2.4-5.2-1.9-7.9
			c0.1-0.4,0.7-0.4,0.8,0c0.2,1.1,0.3,2.3,0.6,3.4c0-0.1,0-0.1,0.1-0.2c0.1-0.2,0.3-0.2,0.4,0c0.1,0.4,0.2,0.8,0.4,1.2
			c0-0.1,0-0.3,0-0.4c0-0.5,0.6-0.5,0.8-0.1c0.3,0.8,0.7,1.5,1.2,2.2c-0.1-0.4-0.3-0.9-0.4-1.3c-0.1-0.3,0.3-0.5,0.5-0.2
			c0.3,0.8,0.8,1.5,1.3,2.3c-0.3-0.7-0.5-1.3-0.6-2c-0.1-0.3,0.2-0.5,0.4-0.4c0.1-0.1,0.3,0,0.4,0.1c0.2,0.2,0.3,0.5,0.5,0.7
			c0.1-0.1,0.4-0.1,0.5,0.1c0.1,0.2,0.2,0.5,0.3,0.7h0.1c-0.3-1.2-0.7-2.4-0.7-3c0-0.2,0.3-0.4,0.5-0.3
			C145.6,46.1,147.4,52.5,144,53.2z M151.5,94c-1-0.6-1-1.6-1.1-2.6c-0.2-1.9-1.3-4.6-0.7-6.5c0.8-2.5,2.2-4.4,2-7.2
			s-0.8-5.5-1.3-8.3c0-0.2,0.2-0.3,0.3-0.1c2.3,4.9,3.3,9.6,1.2,14.6c-0.9,2.2-0.2,4.1,0.1,6.3c0.3,2.6,2.4,1.2,2.7-0.7
			c0.2-1.1,0.6-4-0.3-5.1c-0.1,0.2-0.2,0.4-0.4,0.9c-0.3,0.6-1.2,0.2-1-0.4c0.1-0.5,0.2-1,0.3-1.6c0-0.3,0.2-0.7,0.5-0.7
			c0.4-0.1,0.8-0.1,1.2-0.2c0.3,0,0.6,0.2,0.8,0.4c1.3,2.6,1.2,5.8,0.2,8.5C155.4,93,153.3,95.1,151.5,94z"/>
		<path class="st1" d="M29.7,123.6C29.8,123.6,29.8,123.6,29.7,123.6C29.8,123.6,29.8,123.6,29.7,123.6
			C29.8,123.6,29.8,123.6,29.7,123.6z"/>
		<path class="st2" d="M51.8,24.3c1.6-0.9,4-2.8,3.9-4.9c0-1.5-0.6-3.1-2.4-2.6c-0.1,0,0,0.1,0,0.1c2,0.1,1.8,1.5,1.1,2.8
			c-0.1-1.1-0.8-2.1-1.8-2.6c-2.4-1.4-4.8,0.9-6.8,2.1c-1.6,0.9-9.4,4.9-6.5,7.9C42.6,30.1,48.8,26,51.8,24.3z M53,19.3
			c0.2,0.5,0.3,1.1,0.1,2c0,0.2,0,0.3,0.1,0.4c-0.1,0.1-0.2,0.2-0.3,0.3C53.2,21.2,53.2,20.2,53,19.3z M51.5,18.3
			c0.3,0,0.6,0.1,0.9,0.3c-0.1,0-0.1,0.1-0.1,0.2c-0.1-0.4-0.5-0.4-0.8-0.2C51.4,18.5,51.5,18.4,51.5,18.3z M51.3,22.5
			c0.1,0.2,0.2,0.3,0.3,0.4c-0.2,0.1-0.4,0.2-0.5,0.3C51.2,23,51.3,22.8,51.3,22.5z M50.7,18.3c-0.1,0.2-0.2,0.4-0.2,0.6l0,0
			c-0.3,0.2-0.5,0.4-0.7,0.6c0-0.2,0-0.4,0-0.6s-0.1-0.3-0.3-0.3C49.9,18.5,50.3,18.4,50.7,18.3z M49.6,23.5c0,0.2,0,0.3,0.1,0.5
			c-0.1,0.1-0.2,0.1-0.3,0.2C49.4,23.9,49.5,23.7,49.6,23.5z M48.8,22.3c-0.1,0.1-0.1,0.3-0.2,0.4c0,0,0,0,0,0.1
			C48.6,22.6,48.7,22.4,48.8,22.3L48.8,22.3z M48.5,19.2c0.1-0.1,0.2-0.1,0.3-0.2v0.1c0,0.7-0.4,1.4-0.9,2.1c0.1-0.5,0.1-0.9,0-1.4
			c0-0.1,0-0.1-0.1-0.2C48,19.5,48.3,19.3,48.5,19.2z M46.5,25.4c-0.3,0.1-0.7,0.3-1,0.4c0.2-0.9,0.8-1.8,1.4-2.6
			C46.6,23.9,46.4,24.7,46.5,25.4z M44.7,23c0-0.1,0-0.2,0.1-0.4c0-0.1,0.1-0.1,0.1-0.2c0.2-0.2,0.1-0.4-0.1-0.5c0-0.2,0-0.4,0-0.6
			c0.1-0.1,0.3-0.2,0.4-0.3c0.5-0.3,1-0.6,1.4-0.8c-0.3,0.8-0.7,1.6-1.3,2.4c-0.3,0.5-0.6,0.9-0.9,1.4C44.6,23.8,44.7,23.4,44.7,23z
			 M44,26.2C44,26.1,44,26.1,44,26.2C44,26.2,44,26.3,44,26.2c0,0.1,0,0.1-0.1,0.1C43.9,26.3,43.9,26.2,44,26.2z M43,22.7
			c0.1-0.1,0.1-0.2,0.1-0.2c0.1-0.1,0.3-0.2,0.4-0.3c0,0.2-0.1,0.3-0.1,0.5c-0.1,0.2-0.3,0.3-0.4,0.5c-0.1,0.1-0.2,0.3-0.3,0.4
			C42.7,23.3,42.8,23,43,22.7z M41.8,26L41.8,26c0-0.1,0-0.2,0-0.2h0.1c0.1,0.1,0.1,0.2,0.3,0.3l0,0c-0.1,0.2-0.1,0.4,0,0.5
			c-0.2,0-0.3,0-0.5-0.1C41.9,26.3,41.9,26.2,41.8,26z M41.3,23.9L41.3,23.9c-0.2,0.4-0.4,0.7-0.6,1.1c0-0.1-0.1-0.2-0.1-0.3
			C40.8,24.5,41.1,24.2,41.3,23.9z"/>
		<path class="st2" d="M63.9,20.5c-0.2,1.4-1.2,2.3-2.2,3.2c-0.6,0.5-1.2,0.8-1.8,1.2c-0.4,0.3-1.1,0.5-1.3,1
			c-0.1,0.2,0,0.4,0.2,0.5c0.6,0.2,1.2-0.2,1.6-0.5c0.8-0.5,1.5-1,2.2-1.6c1-0.9,2.1-2.2,1.7-3.7C64.2,20.3,63.9,20.3,63.9,20.5z"/>
		<path class="st2" d="M32.8,33c0,0.1,0.1,0.2,0.2,0.3c4.2,3.1,9,2,13.6,0.5c2.6-0.9,5.2-2.2,7.4-3.7c2-1.3,3.1-3.3,4.7-5
			c0.1-0.1-0.1-0.3-0.2-0.2c-1.5,1.2-2.7,2.6-4.2,3.7c-2,1.5-4.7,2.3-7,3.2c-0.1,0-0.2,0.1-0.3,0.1c0,0,0,0-0.1,0
			c2.2-0.7,4.2-1.8,6.2-3.6c0.1-0.1,0-0.4-0.2-0.3c-2.2,0.9-4.1,2.3-6.4,3c-0.3,0.1-0.7,0.2-1,0.2c0.6-0.3,1.3-0.7,1.9-1.2
			c0.2-0.1,0-0.4-0.2-0.3c-1.5,1-3.5,1.1-5.3,1.3c2.3-0.4,4.6-1.2,5.5-1.6c3.4-1.4,6.7-3.4,9.7-5.6c0,0.1,0.2,0.2,0.3,0.1
			c1.7-0.7,8.6-3.7,5.8-6.6c-1.4-1.5-3.6-1.8-5.6-2.1c-2.6-0.4-6.1-0.9-8.6,0.2c-0.1,0.1,0,0.2,0.1,0.2c2.2-0.3,5,0.2,7.2,0.5
			c1.7,0.2,3.4,0.5,4.9,1.2c2.8,1.3,0.1,3.2-2.1,4.6c0.8-1,1.2-2.1,0.9-3.5h-0.1c-0.9,3.9-6.6,6.1-9.8,7.8
			c-3.2,1.8-12.8,6.7-14.4,0.7c-0.1-0.3-0.5-0.3-0.6,0c-1,2.9,0.4,4,2.6,4.2c-0.1,0-0.2,0.1-0.2,0.1c-0.2,0.1-0.2,0.3-0.2,0.5
			c0,0-0.1,0-0.1-0.1c-0.8-0.3-1.3,0.6-0.7,1.1c-1.6-0.5-3-1.4-4.6-2.2c-0.7-0.3-1.2,0.4-0.8,1C31.8,32.2,32.3,32.6,32.8,33z"/>
		<path class="st2" d="M62.5,142.5c2.8-1.4,4-4.3,4.2-7.2c0-0.1-0.2-0.1-0.2,0c-0.3,1-0.9,2.2-1.7,3.3c-0.1-0.1-0.3-0.1-0.4,0
			c-0.6,0.6-1.5,1.2-2.4,1.5c-0.3,0.1-0.5,0.2-0.7,0.3c-0.9,0.2-1.8,0.3-2.6-0.2c-0.9-0.5-1.1-1.6-1.5-2.6c-0.2-2.5,1.2-5.5,4-5.6
			c0.1,0,0.1-0.1,0-0.1c-1.1-0.5-2-0.3-2.9,0.3c-0.1-0.3-0.3-0.5-0.6-0.5c-2.2,0-3.7,2.5-4,4.5c-0.3,2.3,0.6,4.7,2.4,6.1
			C58.1,143.6,60.4,143.5,62.5,142.5z"/>
		<path class="st2" d="M34.2,98.5c6.8,2.1,16.8-4.8,12.9-12.3c-0.3-0.6-1.2-0.3-1.2,0.3c-0.1,1.9-0.1,3.6-0.7,5.2
			c0.2-2.5-0.6-5.2-1.4-7.4c-0.1-0.2-0.3-0.2-0.3,0c0.1,2.9,0.9,5.8-0.4,8.6c-0.5,1-1.3,1.8-2.3,2.4c1.3-1.6,2.2-3.7,2-5.5
			c-0.4-5.3-6.3-7.6-10.7-5.8c-1.7,0.7-2.7,1.9-3.2,3.4c-0.6,1-0.9,2.2-1,3.6C27.6,94.9,30.7,97.5,34.2,98.5z M40,87.9
			c0.2,0.3,0.3,0.6,0.5,0.9c-0.1,0-0.1-0.1-0.2-0.1c-0.1-0.1-0.1-0.2-0.2-0.3C40.1,88.3,40.1,88.1,40,87.9C40,88,40,88,40,87.9z
			 M37.1,93.4C37.1,93.4,37.2,93.4,37.1,93.4c0.2-0.1,0.4-0.1,0.6-0.1c-0.3,0.2-0.7,0.3-1,0.3C36.8,93.6,37,93.5,37.1,93.4z
			 M34.2,92.8c-0.2,0.1-0.3,0.3-0.4,0.4c-0.1-0.1-0.1-0.2-0.2-0.4C33.8,92.9,34,92.8,34.2,92.8z M32.1,86.2c0,0,0.1,0,0.1-0.1
			C32.2,86.1,32.2,86.2,32.1,86.2c0,0-0.1,0.1-0.1,0.2l0,0C32,86.2,32.1,86.2,32.1,86.2z"/>
		<path class="st2" d="M34.5,80.8c0.4-0.1,0.4-0.6,0-0.6c-1.3-0.1-2.6,0-3.8,0.3c2-0.9,4.1-1.3,6.3-1.7c0.3,0,0.2-0.5,0-0.5
			c-4.1-1.3-8,0.3-11.2,3.1c-2.6,2.2-3.8,8.2-1.7,11c0.1,0.1,0.2,0.2,0.3,0.2c0.3,0.8,0.6,1.5,1,2.1c0.3,0.4,0.9,0.3,0.9-0.3
			c0.1-2.6-1-4.9-0.5-7.5C26.8,83,31.1,81.2,34.5,80.8z"/>
		<path class="st2" d="M126.4,112.3c-0.4,0.2-0.1,0.9,0.3,0.7c1.8-0.7,4.4-1.4,5.4-3.2c1.3-2.4,1.2-5.1,0.6-7.7
			c-1.2-5.2-5.3-10-10.5-11.4c-3.2-0.9-6.5,0.3-9,2.4c-0.3,0.2-0.5,0.3-0.8,0.5c-3.4,1.1-4.9,6.5-5.2,9.6c-0.3,4.2,2.9,11.1,8,10.2
			c0.5-0.1,0.4-0.7,0.1-0.9c-0.9-0.7-1.9-1.2-2.8-1.8c0,0,0,0,0.1,0c0.2,0.1,0.3-0.2,0.2-0.3c1.1,0.9,2.4,1.7,3.9,2.1
			c0.3,0.1,0.6-0.3,0.3-0.5c-3.1-2.7-6.1-6.1-6.1-9.8c0.4,2.2,1.3,4.3,2.2,5.2c1.3,1.3,2.7,2.1,4.3,2.6c0.1,0,0.2,0.1,0.3,0.1
			c0.1,0,0.1,0,0.2,0c3.9,1,8.1-0.5,10.5-4.1c0.3-0.4-0.3-0.8-0.7-0.5c-1,0.8-2,1.5-3.1,1.9c0.1-0.1,0.2-0.3,0.2-0.5
			c0.1-0.1,0.2-0.1,0.3-0.2c0.9-0.2,1.8-0.7,2.3-1.1c0.9-0.8,1.4-1.7,1.7-2.8c0.1,1.2,0,2.5-0.6,3.6c-1.4,2.8-5,4.5-7.2,6.5
			c-0.1,0.1,0,0.2,0.1,0.2c4-1.3,7.9-3.3,9.4-7.5c0.2-0.5,0.3-1,0.3-1.4c0.1,1.1,0.1,2.2,0,3.3C130.8,110.2,128.5,111.3,126.4,112.3
			z M122.1,94.7L122.1,94.7c0.1-0.1,0.2-0.1,0.2-0.1c0.1,0,0.1-0.1,0.2-0.1c0.2,0.1,0.4,0.2,0.6,0.3c-0.1,0-0.2,0.1-0.2,0.2
			c-0.4,1.5-1.4,2.6-2.9,3.1c-0.2,0.1-0.5,0.1-0.8,0.2c0.2-0.1,0.3-0.1,0.5-0.2C121.1,97.4,121.6,96.1,122.1,94.7z M119.1,94.6
			c0.3,0,0.6,0,0.9,0c-0.5,0.2-0.9,0.3-1.4,0.3C118.8,94.8,119,94.7,119.1,94.6z M114.9,96.4c-0.8,1.7-1.1,3.5-1.1,5.4
			c-0.1,0-0.2,0.1-0.3,0.2c-0.2-1.2-0.2-2.5,0.1-3.7c0.2-1.1,0.8-1.9,1.6-2.4C115.1,96,115,96.2,114.9,96.4z M116.8,105.8v-0.1
			c0.1,0,0.1,0,0.2,0c0.3,0.2,0.5,0.3,0.8,0.5C117.4,106.1,117.1,106,116.8,105.8z M117.6,96.7C117.6,96.7,117.5,96.7,117.6,96.7
			c0.5,0,1.1-0.1,1.4-0.2h0.1c-0.1,0-0.2,0.1-0.4,0.1C118.4,96.7,118,96.7,117.6,96.7z M120.7,106.3v-0.1c0.4,0,0.9,0,1.3-0.1
			C121.6,106.1,121.2,106.2,120.7,106.3z M124.2,96.2c0,0.1,0,0.1,0,0.2c0,0-0.1,0.1-0.1,0.2c0,0.1,0,0.1,0,0.2
			c0,0.3-0.1,0.5-0.1,0.8c-0.3,1.3-1.3,2.2-2.5,2.9c-1,0.1-2.1-0.1-3,0.1l-0.1-0.1c1-0.1,2.1-0.6,2.8-0.9c1.7-0.9,2.2-2.6,2.4-4.4
			c0,0,0,0,0-0.1c0.3,0.2,0.7,0.5,1,0.8C124.4,95.9,124.3,96,124.2,96.2z M125.3,96.7c0.6,0.7,1.1,1.6,1.5,2.4
			c0,0.1,0.1,0.1,0.2,0.2c-0.6,0.5-1.1,0.9-1.7,1.2C125.8,99.4,125.6,98,125.3,96.7z M128.7,101.6c-0.3,0.9-0.8,1.6-1.5,2.2v-0.1
			c0.4-0.4,0.7-0.9,0.9-1.4c0.1-0.3-0.1-0.5-0.4-0.4c-0.4,0.2-0.9,0.4-1.3,0.6c0.1-0.2,0.3-0.4,0.4-0.6c0.1-0.3,0-0.5-0.2-0.6
			c0.4-0.5,0.8-1,1.1-1.6c0.1-0.1,0.1-0.3,0-0.4c0.1,0,0.1-0.1,0.2-0.2c0.4,0.7,0.7,1.4,1,2.1C128.8,101.4,128.7,101.5,128.7,101.6z
			"/>
		<path class="st2" d="M114.9,87.2c-5.5,0.7-10.6,4.4-12.5,9.6c-1.7,4.6-2.3,12.3,1.6,16c0.2,0.2,0.6-0.1,0.4-0.3
			c-2.4-3.8-2.2-10.2-0.8-14.3c2-5.8,7.8-8.8,13.5-9.2c6.1-0.4,11.8,1.1,16.3,5.3c4.2,3.9,2.8,10.9,3,15.9c0,0.2,0.3,0.2,0.3,0
			c2.2-5.2-0.1-13-3.2-17.5C129.6,87.1,121.1,86.5,114.9,87.2z"/>
		<path class="st2" d="M106.1,110.7c0.6,6.8,10.4,9.7,15.9,9.9c1.9,0.1,4-0.1,6-0.7c-4.7,2.2-10,2-15.7,1.1c-0.2,0-0.3,0.3-0.1,0.3
			c4.9,2.1,9.4,3.1,14.5,1.3c3.4-1.2,6.6-3.3,7.9-6.7c0-0.1,0-0.2,0-0.2c0.8-1.1,1.2-2.5,1.3-4c0,0,0,0-0.1,0
			c-1,5.9-10.2,7.7-15,7.3c-6.2-0.5-10.2-4.4-14.4-8.5C106.4,110.4,106.1,110.5,106.1,110.7z"/>
		<path class="st2" d="M132.3,79.4c3.2-0.7,2.6-5.9,0.5-7.5c-0.4-0.3-0.9,0.2-0.8,0.6c0.2,0.8,1.1,5.7-0.8,4.5
			c-1.2-0.8-2.1-2.4-2.7-3.6c-0.6-1.3-0.7-2.8-0.4-4.2c0.3-1.1,1.8-2.8,3.1-1.7c0.7,0.6,0.9,1.7,1.6,2.4c0.2,0.3,0.6,0,0.5-0.3
			c-0.4-2.5-2.9-5.3-5.4-3c-2.1,1.9-2.1,5.3-1,7.7C127.7,76.1,129.7,79.9,132.3,79.4z"/>
		<path class="st2" d="M29.2,65.8c0.1-0.2-0.2-0.4-0.3-0.3c-2.3,1.9-5.1,1.6-7.4,0.1c-1.2-0.7-2.1-1.7-2.8-2.9
			c-1-1.6-0.7-3.4-0.8-5.2c0-0.5-0.7-0.8-1-0.3C13.9,63.7,24.8,72.4,29.2,65.8z"/>
		<path class="st2" d="M103.1,78.7c1.3,0,2.5-0.2,3.8-0.8c0.3-0.1,0.3-0.6,0-0.8c-0.5-0.2-1-0.3-1.5-0.4c0.5-0.1,1-0.3,1.3-0.6
			c0.2-0.2,0.2-0.5,0-0.7c-0.8-0.8-2-0.4-3.1-0.3c-1.3,0-2.6-0.5-3.8-0.6c-0.3,0-0.4,0.5-0.2,0.6c1.1,0.5,2.1,1.2,3.4,1.5
			c0.1,0,0.3,0,0.4,0.1c-0.7,0-1.3,0.1-2,0c-2.5-0.1-5.1-1.3-7.3-2.4c-0.4-0.2-0.6,0.3-0.3,0.5c1.2,0.8,2.4,1.7,3.8,2.3
			c-2,0-4,0-5.9-0.7c-5.2-1.7-7.4-8-5.3-12.8c0.1-0.2-0.1-0.4-0.3-0.3c-3.4,2.4-1.7,9,0.6,11.7c3.6,4.1,10.9,5.4,16,4
			C102.9,79.1,103,78.9,103.1,78.7z"/>
		<path class="st2" d="M92.2,120.5c3-2.7,2.3-6.2-0.2-9.1c-1.1-1.3-2.8-2-4.6-2.4c-0.3-0.1-0.5-0.1-0.8-0.1
			c-1.7-0.2-3.4-0.1-4.8,0.2c-3.6,0.6-6.9,3.2-7.9,6.8c-0.9,3.3,2.1,7.3,5.2,8c0.2,0.1,0.5-0.2,0.5-0.4c0.4,0.1,0.8,0.2,1.3,0.2
			c0.3,0,0.6-0.4,0.4-0.7c-0.9-1.5-2.1-2.5-2.9-3.9c0.2,0,0.5-0.1,0.6-0.4c0.1-0.3,0.1-0.5,0.2-0.8c0.5,1.4,1.6,3.3,3.3,2.9
			c0.2-0.1,0.2-0.3,0.1-0.5c-1-0.6-1.5-1.9-2-2.8c-0.9-1.9-0.2-3.4,0.3-5.2c0.3-0.1,0.7-0.2,1-0.3c-0.2,0.4-0.4,0.8-0.6,1.1
			c-0.8,2.1-0.6,4.4,1.4,5.6c0.3,0.2,0.8-0.3,0.4-0.6c-1.5-1.2-1.3-2.9-0.6-4.5c0.1-0.3,0.3-0.5,0.5-0.8c-0.1,0.9-0.1,2,0,2.8
			c0.1,0.9,0.5,1.5,1.3,1.8c0.3,0.1,0.6-0.3,0.3-0.5c-0.9-0.7-0.4-3-0.2-4c0.1-0.4,0.3-0.8,0.5-1.1c0.1,0,0.1,0,0.2,0
			c-0.3,0.7-0.3,1.6-0.4,2.4c-0.1,1,0.1,1.9,0.9,2.5c0.5,0.3,0.9-0.3,0.7-0.7c-0.4-1-0.3-3,0.4-3.9c0.3-0.4,0.9-0.5,1.4-0.6
			c-0.2,0.1-0.4,0.3-0.5,0.5c-0.5,0.5-0.8,1.4-0.8,2.1c0,0.2,0.2,0.3,0.3,0.3c0,0.4,0.1,0.8,0.3,1.1c0.2,0.3,0.5,0.2,0.6,0.1
			c0.1,0.1,0.3,0.1,0.4,0c0.5-0.5,1.1-0.4,1.8-0.3c-0.6,0.1-1.2,0.5-1.4,1.1c-0.2,0.5,0.4,0.8,0.7,0.4c0.3-0.4,0.8-0.4,1.3-0.4
			s0.9,0.4,1.4,0.2c0,0,0.1,0,0.1-0.1c0.1,1.1-0.1,2.4-0.8,3.8C91.4,120.5,91.9,120.8,92.2,120.5z M90.2,112.5L90.2,112.5
			L90.2,112.5L90.2,112.5z M89.2,111.8C89.2,111.9,89.3,111.9,89.2,111.8c0,0.1-0.1,0.1-0.2,0.1C89.1,111.9,89.2,111.9,89.2,111.8z
			 M88.1,114.8c-0.1-0.3-0.2-0.5-0.1-0.8c0.6-0.2,1.2-0.2,1.8-0.2c0.4,0,1.2-0.2,1.1-0.8c0.3,0.3,0.5,0.6,0.7,0.9
			C90.4,113.8,88.9,113.9,88.1,114.8z M91.7,115.2c0.1,0,0.2,0,0.2,0c0.1,0,0.1,0,0.1-0.1c0,0.1,0.1,0.2,0.1,0.4
			C92.1,115.3,91.9,115.3,91.7,115.2z"/>
		<path class="st2" d="M99.4,142.5c-1.6-0.2-3,1-4.6,1.4c-0.9,0.2-1.8,0.2-2.7-0.1c1.8,0,3.7-0.5,5-1.2c0.3-0.2,0.4-0.7,0-0.9
			c-1.2-0.5-2.5-0.3-3.7-0.1c0-0.2-0.1-0.3-0.3-0.3c-0.8-0.1-1.7-0.7-2.4-1c-0.5-0.2-0.7-0.6-0.8-1.1c0.5,0.5,1.3,1,2,1
			c0.3,0,0.7,0,1,0c0.2,0,0.4-0.2,0.7-0.3c0.1-0.1,0.1-0.3,0-0.3c-0.3-0.1-0.7-0.5-1-0.7c-0.4-0.3-0.8-0.6-1.2-0.9
			c-0.1-0.1-0.3-0.2-0.4-0.3h0.1c0.1,0.1,0.1,0.2,0.2,0.2c0.5,0.4,1.2,0.5,1.8,0.3c0.1,0.2,0.3,0.3,0.5,0.4c0.4,0.2,0.7-0.4,0.3-0.6
			c-0.3-0.2-0.4-0.4-0.5-0.6c1.7,0,3.6,0.5,5,1.3c0.4,0.3,0.9-0.3,0.5-0.7c-0.6-0.6-1.2-1-1.9-1.4c0-0.3-0.2-0.6-0.5-0.7
			c-2.5-1-5.9-2.3-8.3-0.6c-0.2,0.1-0.4,0.3-0.5,0.5c-0.9,0.9-1.6,2.2-1.7,3c-0.1,0.3-0.1,0.8,0,1.2c-0.1,0.4-0.1,0.8,0,1.2
			c0.5,2.6,3.1,4,5.5,4.6c2.4,0.7,7.4,0.2,8.2-2.7C99.7,142.9,99.6,142.6,99.4,142.5z"/>
		<path class="st2" d="M85.2,48.2c0.3-0.3-0.1-0.7-0.4-0.6c-0.1,0-0.2,0.1-0.3,0.1c0.5-0.5,0.9-1,1.2-1.5c1.9-2.7,0.5-6.2,0-9.1
			c0-0.3-0.5-0.3-0.5,0c-0.2,0.9-0.2,0.7,0,1.6c0.4,2,0.8,3.6-0.1,5.6c-0.6,1.5-1.8,2.7-3.3,3.3c-0.8,0.3-1.2,0.3-1.7,0.8
			c-1.5-0.1-2.9-0.5-4-1.3c0.2-0.1,0.3-0.2,0.3-0.5c0-0.1,0-0.3,0-0.4l0.1,0.1c1.6,1.2,4.3,1,5.7-0.4c0.1-0.1,0.1-0.3-0.1-0.4
			c-0.3-0.1-0.6-0.1-0.9-0.2c0.4,0,0.9-0.1,1.3-0.4c1.3-0.7,1.7-2.6,1.5-4c-0.1-0.5-0.2-0.9-0.4-1.2c0.3,0.1,0.5-0.1,0.4-0.4
			c-0.4-0.9-1-1.5-1.6-1.7c0.5-0.1,1.1,0.1,1.6,0.4c0.3,0.2,0.5-0.2,0.3-0.4c-0.9-0.9-1.6-1.7-3.1-1.4c-1.5,0.3-2.6,1.3-3.5,2.4
			c-0.1,0.1-0.1,0.2-0.2,0.3l0,0c0-0.1,0.1-0.1,0.1-0.2c0.6-1,1.7-2.1,2.7-2.6c0.9-0.5,1.4-0.4,2.1-1.1c0.1-0.1,0.1-0.2,0-0.3
			c-1.9-1.9-5.3,1.8-6.3,3c-1.7,2.2-2.3,6.1-1,8.6c-0.3-0.3-0.7-0.7-0.9-1.2c-1.7-3,0.2-6.5,1.1-9.3c0.1-0.3-0.3-0.5-0.5-0.3
			c-2.9,2.8-3.8,8.1-1.5,11.5C75.7,50.8,82,51,85.2,48.2z M82.1,40.6L82.1,40.6c0.1,0,0.2,0.1,0.3,0.1c0,0.1,0,0.1,0.1,0.2
			c-0.1,0-0.2,0-0.3,0c-0.1,0-0.1,0.1-0.2,0.1C82.1,40.8,82.1,40.7,82.1,40.6z M79.9,42.8C79.9,42.8,80,42.8,79.9,42.8
			C80,42.8,80,42.8,79.9,42.8c0,0.1,0,0.1,0,0.1h-0.1c0,0,0,0-0.1,0C79.8,42.8,79.9,42.8,79.9,42.8z M79.5,45
			c0.3,0.2,0.7,0.4,1.1,0.4c-0.4,0-0.8,0-1.2,0c-0.1-0.1-0.2-0.2-0.3-0.3C79.3,45.1,79.4,45.1,79.5,45z"/>
		<path class="st2" d="M78.3,86.4c-1.1-0.1-2.9,0.4-3.1,1.7s0.5,2.6,1.6,3.2c0.4,0.2,0.8-0.3,0.5-0.6c-0.7-0.6-1.2-2.1-0.1-2.6
			c0.8-0.3,1.8,0,2.6,0.2h0.1c-0.5,0-0.9,0-1.3,0.1s-0.8,0.4-1,0.7c-0.1,0.2,0,0.7,0.3,0.7c0.2,0,0.3-0.1,0.5-0.1c0.3,0,0.6,0,0.9,0
			c0.1,0,0.1,0,0.2,0c-0.3,0.3-0.1,0.8,0.3,0.8c0.7,0.1,1.3,0.4,1.7,0.9l0,0c-0.1,0.1-0.2,0.2-0.2,0.3c0,0.3,0,0.6-0.1,0.9
			c-0.1-0.1-0.2-0.3-0.3-0.5c-0.2-0.5-1-0.4-1,0.1c0.1,0.5,0.2,0.9,0.5,1.2c-0.1,0.2,0,0.5,0.2,0.6l0,0c-0.6-0.8-1.2-1.7-1.3-2.1
			c-0.2-0.5-0.9-0.6-1.1,0c-0.6,2.7,2.9,5.9,5.5,4.6c2.1-1,1.7-4.7,1.2-6.5C84.4,87.9,80.6,86.6,78.3,86.4z M82.8,92.9
			C82.8,92.9,82.9,92.9,82.8,92.9C82.9,93,82.9,93,82.8,92.9c0,0.1,0.1,0.2,0.1,0.2h-0.1C82.8,93.1,82.8,93,82.8,92.9z M81.5,89.6
			L81.5,89.6c0.1-0.2,0.1-0.4,0.1-0.6c0.3,0.2,0.6,0.3,0.9,0.5C82.1,89.5,81.8,89.6,81.5,89.6z M82.3,95.5c0.1,0,0.1-0.1,0.2-0.1
			c0.3,0,0.6-0.1,0.9-0.3v0.1C83.1,95.7,82.7,95.7,82.3,95.5z M83.4,91c-0.1-0.2-0.3-0.4-0.4-0.6c0.1,0,0.2-0.1,0.3-0.1
			c0.2,0.2,0.3,0.5,0.4,0.7C83.6,91,83.5,91,83.4,91z M83.9,91.9L83.9,91.9L83.9,91.9L83.9,91.9z"/>
		<path class="st2" d="M159.7,102.6c-0.7-1.9-1.1-3.4-1.2-5.3c1.1-5.2,1.6-10.5,1.6-15.9c0-13.3-3.4-26.4-9.8-37.9
			c0-1.4-0.1-2.8,0.4-4.3c0.3-0.9,0.6-2.2,0.3-3.1c-0.8-2.6-2.8-4.3-4.8-6c-3-2.5-4.6-6.2-7.2-9.1c-1.9-2.1-5.3-0.2-7.5-0.9
			c-0.3-0.1-0.5,0-0.7,0.2c-10.6-8.5-23.3-14-36.7-16.1c-1.5-0.8-1.2-1.8-2.2-2.9c-1.4-1.5-3.2-1.3-5.1-1.2c-2,0.2-4.4-0.1-6.3,0.2
			c-2.4,0.4-4,2.1-6,3.3c-3.4,0.3-6.8,0.9-10.1,1.6c-1.4-0.3-2.7-0.5-4-1.3c-1.1-0.7-2-1.2-3.2-1.4c-2.8-0.5-5.7,2.1-7.8,3.6
			c-2.9,2.1-7.4,2-10.1,4.3c-2.3,1.9-1.2,4.6-2.7,7c-0.1,0.1-0.1,0.3-0.1,0.4c-6,4.3-11.4,9.4-15.9,15.2c-1.8,0.5-3.7,1.7-5.3,2.6
			c-2.3,1.2-3.4,3.4-4.8,5.5c-1.2,1.7-3.1,3.8-3.2,6S8.5,51,9.2,53c-3.5,8.9-5.4,18.6-5.4,28.4c0,0.5,0,1.1,0,1.6
			c-0.4,0.9-0.8,1.8-1.6,2.6c-0.6,0.7-1.4,1.4-1.8,2.2c-1.1,2.9,0.1,5.7,1.3,8.4c1.7,3.8,0.9,8.4,2.8,12.1c0.9,1.8,3.5,1.9,5.2,2.9
			c5.1,12.3,13.1,23,23.4,31.3c0.6,1.6,1.2,4,1.6,4.8c1,2.2,2.4,3.8,4.5,5c2.3,1.3,4.2,2.7,6.8,3.1c2.1,0.3,3.4-1.6,5.2-2.1
			c9.6,4.1,20.1,6.3,30.8,6.3c4.1,0,8.3-0.3,12.3-1c0.3,0.1,0.7,0.1,1.5,0.2c1.9,0.1,3,1.9,4.6,2.7c1.8,0.9,4.3-0.7,5.8-1.5
			c2.2-1.1,5.6-1.6,7.4-3.3c2-1.8,2.9-4.1,4.6-6.1c0.5-0.3,1.1-0.6,1.6-0.9c0.1,0,0.2-0.1,0.3-0.1c0.2,0,0.3-0.1,0.4-0.3
			c11.1-6.3,20.5-15.2,27.4-26c0.3-0.4,0.5-0.8,0.8-1.2c0.6-0.1,0.8-0.3,1.4-0.9c1.5-1.6,3.5-1.5,5.4-2.3c1.7-0.7,2.2-3.3,2.5-4.8
			c0.7-2.7,1.9-5.4,2.3-8.1C160.5,104.8,160.1,103.6,159.7,102.6z M79.9,1.9c1.2-0.5,3,0.1,4.3,0c2.6-0.1,5.7-1.4,7.2,1.7
			c0,0,0,0.1,0.1,0.1c-3.1-0.4-6.3-0.6-9.4-0.6c-1.4,0-2.8,0-4.1,0.1C78.3,2.8,78.8,2.4,79.9,1.9z M11.9,41.7c1.5-2.1,2.6-4.1,5-5.4
			c0.7-0.4,1.4-0.8,2.1-1.2c-3.5,4.8-6.5,10-8.8,15.5c-0.1-0.2-0.3-0.5-0.4-0.7C8,46.9,10.2,44.2,11.9,41.7z M40.9,151.4
			c-2.3-1.3-3.9-2.3-5.2-4.8c-0.6-1.1-1.1-2.4-1.6-3.5c1,0.8,2.1,1.6,3.2,2.4c3.7,2.6,7.7,4.9,11.8,6.8
			C45.9,153.9,44,153.2,40.9,151.4z M115.2,149.6L115.2,149.6c-0.5,0.2-0.9,0.4-1.4,0.5c-1.2,0.4-3.3,0.1-3.7,1.7
			c0,0.1,0.1,0.3,0.2,0.2c1.4-0.3,2.9-0.4,4.3-0.8c0.2-0.1,0.4-0.1,0.6-0.2c-0.6,1-1.1,2-1.7,2.9c-1.2,2-3.9,2.1-5.8,3
			c-2.6,1.1-5.5,4-8,1.5c-0.6-0.5-1.1-0.9-1.7-1.2c1.2-0.4,2.4-1,3.5-1.7c0.2-0.2,0.1-0.5-0.1-0.5c-1.8-0.1-3.6,0.6-5.3,1
			c-0.3,0.1-0.7,0.1-1,0.2v-0.1c-4.3,0.7-8.6,1.1-13,1.1c-29.4,0-56.3-17.3-68.7-43.6c0.1-1.3-0.8-2.5-1.3-3.7
			c-0.7-1.6-1.9-3.2-2.3-4.9c-0.1-0.3-0.5-0.3-0.6,0c-0.5,1.4,0.3,2.6,0.9,3.9c-0.7-0.3-1.4-0.6-2.3-0.8c-3.1-0.8-2.9-8.4-3.5-11.1
			c-0.9-3.9-4.1-6.4-0.7-10.3c0.4-0.4,0.6-0.8,0.9-1.2c0.1,0.9,0.3,1.7,0.5,2.6c0.4,1.8,0.5,3.7,1.5,5.3c0.2,0.4,0.7,0.1,0.6-0.3
			c-0.7-1.6-0.3-3.6-0.6-5.3c-0.2-1.2-0.2-2.4-0.3-3.6h0.1c0-0.9-0.1-1.9-0.1-2.8c0-23.1,10.6-44.9,28.5-59.3c0.1,0,0.2,0,0.3,0
			c0.7-0.2,1.1-0.6,1.6-1.1c0.9-0.8,1.9-1.3,2.9-1.9c0.8-0.5,1.5-1,2.2-1.6c0.7-0.7,1.2-1.8,2.2-2.1c0.3-0.1,0.3-0.5,0-0.6
			c-1.8-0.5-3.4,1.6-4.8,2.4c0,0,0,0-0.1,0c0.4-0.9,0.6-1.9,0.6-3c0.2-3.4,7.5-4.8,10.2-6.1c3.6-1.6,5.5-5.3,9.9-2.8
			c1.2,0.7,2.2,1,3.2,1v0.1c-0.7,0.2-1.3,0.4-1.8,0.6c-1.2,0.3-3.1,0.8-3.2,2.2c0,0.2,0.2,0.2,0.3,0.2c1.3-0.6,2.8-1,4.2-1.3
			c1.1-0.2,2.3-0.4,3.4-0.6s1.8,0,2.7-0.8l0.1-0.1c4.5-0.8,9-1.2,13.6-1.2c17.5,0,34.6,6.1,48.1,17.2l0,0c0.3,0.2,0.6,0.5,0.8,0.8
			c1.4,1.4,2.5,3.1,4.2,4.3c0.2,0.1,0.4-0.1,0.3-0.3c-0.5-0.8-0.9-1.7-1.3-2.6c-0.5-0.9-1.3-1.7-2-2.5c1.3,0.2,2.5-0.1,3.9-0.3
			c2.7-0.4,6.2,7.3,8.2,9c2.5,2.1,5.7,4.1,4.8,7.9c-0.5,2-0.6,3.3,0.1,4.8c-0.9-1.4-1.9-2.7-3-4c-0.1-0.1-0.2,0-0.1,0.1
			c0.8,1.8,1.5,3.5,2.4,5.3c0.6,1.2,1.2,2.6,2.2,3.7c4.9,10.2,7.4,21.4,7.4,32.7C158,110.6,141.6,136.8,115.2,149.6z M158.4,106.4
			c-0.2,1.3-1.1,2.6-1.5,3.8c-0.9,3-0.5,6.9-4.4,7.3c-0.5,0.1-1,0.2-1.5,0.4c2.7-5.1,4.9-10.5,6.4-16.1
			C158,103.4,158.7,104.5,158.4,106.4z"/>
		<path class="st2" d="M34,129.8c1.3-4.8-4.9-11.1-8.4-13.5c-0.2-0.2-0.6,0.2-0.4,0.4c1.2,1.6,2.5,3.2,3.7,4.9l0,0
			c-0.1-0.1-0.2-0.1-0.3-0.1c-0.7-0.6-1.6-1.3-1.9-2.2c-0.1-0.3-0.6-0.2-0.5,0.1c0.1,0.7,0.5,1.3,0.9,1.8c-0.2,0.1-0.3,0.2-0.2,0.5
			c-0.5-0.7-0.9-1.5-1.4-2.3c-0.1-0.2-0.6-0.2-0.5,0.1c0.1,1.7,1.1,3.3,2.1,4.7c-0.1-0.2-0.3-0.3-0.4-0.5c-1-1.2-1.3-2.7-2.2-3.9
			c-0.4-1-0.8-1.9-1.3-2.9c-0.1-0.1-0.3-0.1-0.3,0.1c0.2,1.8,0.5,3.4,1,4.9c-0.1,0-0.2,0.2-0.2,0.3c0.1,0.2,0.1,0.4,0.2,0.6
			c-1.1-2.1-2-4.2-2.6-6.6c-0.1-0.4-0.7-0.3-0.7,0.1c-0.1,0.8-0.1,1.5,0.1,2.2c-0.5-1.2-0.8-2.4-1-3.8c-0.1-0.5-0.7-0.3-0.7,0.1
			c0,0.4,0,0.8,0,1.1c-0.5-2,1-3.3,3-2.1c0.3,0.1,0.5-0.2,0.3-0.4c-1-1-1.3-2.5-3.1-2c-1.4,0.4-1.9,1.7-2,3c-0.4-2.2,0-4.4,2.9-4.7
			c0.2,0,0.3-0.3,0.1-0.4c-3.8-2.4-5.1,3.4-4.7,6c0.4,2.4,2.3,4.5,3.8,6.2c0.6,0.6,1.1,1.4,1.7,2.1c1,1.4,2,2.6,2.8,3.5
			C25.5,129.2,32.6,135.1,34,129.8z M27.7,128.5L27.7,128.5c-0.1-0.2-0.3-0.3-0.4-0.4c-0.6-0.7-1.2-1.5-1.7-2.3
			c0.5,0.8,1.1,1.5,1.7,2.2c0.2,0.3,0.5,0.6,0.9,0.8C28,128.7,27.9,128.6,27.7,128.5z M29.7,123.6C29.8,123.6,29.8,123.6,29.7,123.6
			C29.8,123.6,29.8,123.6,29.7,123.6C29.8,123.6,29.8,123.6,29.7,123.6z"/>
		<path class="st2" d="M34.5,119.8c1.4,2.3,2.9,5.9,3,8.6c0,0.5,0,1,0,1.5c-0.5-2.3-1.9-4.4-3-6.4c-1.8-3.2-3.9-6.1-6.8-8.3
			c-0.1-0.1-0.2,0.1-0.2,0.2c2.7,3.4,5.1,6.9,7.1,10.8c0.8,1.5,3.5,5.8,0.6,7c-2.3,0.9-4.5-0.2-6.4-1.3c-0.4-0.2-0.8,0.2-0.6,0.6
			c0.6,1.2,2.2,2,3.9,2.3c0,0.1,0,0.1,0.1,0.2c2.8,2.6,6.5-1.8,6.7-4.4C39.5,126.6,36.9,122.6,34.5,119.8
			C34.5,119.7,34.5,119.7,34.5,119.8z"/>
		<path class="st2" d="M112.6,21c2.2,1.4,4.3,2.6,6.2,4.5c1.7,1.8,1.6,5-1.2,5.2c-1.6,0.1-3.4-0.5-4.8-1c-2.8-0.9-5.4-2.7-7.7-4.5
			c-1-0.7-1.9-1.5-2.7-2.4c-1.5-1.3-1.2-2.6,0.6-3.8c-0.1,0.1-0.1,0.2-0.1,0.3c-0.2,2.7,1.4,4.6,3.5,6c2.7,1.7,6.3,3.4,9.5,2.6
			c0.3-0.1,0.5-0.4,0.6-0.7c0.1-1.9-1.9-3.5-3.7-4.5c-0.4-0.3-0.7-0.6-0.9-1c-0.3-0.5-1-0.1-0.8,0.4c-0.3,0-0.5,0.3-0.4,0.6
			c0.6,0.8,1.4,1.4,2.1,2c0.2,0.1,0.3,0.3,0.5,0.4c-0.2-0.1-0.3-0.2-0.5-0.3c-1-0.7-1.9-1.4-2.8-2.2c-0.3-0.3-0.8,0.2-0.5,0.5
			s0.5,0.5,0.8,0.8c-0.8-0.6-1.6-1.3-2.3-2.1c-0.2-0.2-0.5,0-0.5,0.2c-0.6-0.7-1.1-1.4-1.5-2.2c-0.2-0.3-0.6-0.1-0.5,0.2
			c0.2,1.1,0.8,2.2,1.6,3.1c-0.8-0.7-1.4-1.6-1.6-2.6c0-0.4-0.6-0.5-0.7-0.1s-0.1,0.8,0.1,1.2c-0.1-0.3-0.3-0.5-0.4-0.8
			c-0.1-0.4-0.2-0.8-0.2-1.2c0,0-1.3-0.3,0.7,0.1c0.2,0,0.3-0.2,0.1-0.3c-0.6-0.3-0.8-0.5-1.2-0.8c-0.1-0.1-0.2-0.1-0.3-0.1
			c0.3-0.2,0.7-0.4,1.2-0.6c1.1,0.1,2.3,0.3,3.4,0.5c0.5,0.1,0.7-0.6,0.2-0.7c-2.9-0.8-4.4-1.7-7.2-0.2c-1.5,0.8-1.6,2.4-1.2,3.8
			c1.2,4,8,7.9,11.5,9.3c3,1.2,10.1,3.2,10.8-1.8c0.6-4-5.8-8.5-9-9.2C112.4,19.8,112,20.7,112.6,21z"/>
		<path class="st3" d="M98.3,14C98.2,14,98.2,14,98.3,14L98.3,14z"/>
		<path class="st2" d="M96.6,21.5c1.6,3.1,5.2,6.5,8.7,7.4c0.2,0.1,0.5-0.2,0.3-0.4c-1.3-1.7-3.3-2.6-4.9-3.9
			c-1.1-0.9-2-1.9-2.7-3.1c-1.3-2.1-0.8-5.3,2.1-5.5c0.4,0,0.4-0.6,0-0.6C96.8,15.2,95.2,18.7,96.6,21.5z"/>
		<path class="st2" d="M24.7,64.3c1.3,0.2,2.9-0.1,3.7-1.1c0.3-0.2,0.6-0.5,0.7-0.7c0.5-0.6,0.7-1.2,1-1.9c0-0.1,0-0.2,0.1-0.3
			c1.2-2,1.8-4.5,1.4-6.6c-0.1-0.6-0.9-0.4-1,0.1c0,0.1,0,0.1,0,0.2c-0.2,0-0.4,0.1-0.5,0.3c-0.2-0.1-0.4,0-0.5,0.1
			c-0.1-0.1-0.2-0.1-0.4-0.1c-0.1-0.5-1-0.5-1,0.1c0,0.3,0.1,0.6,0.1,0.9c0,0.1-0.1,0.1-0.1,0.2v0.1c-0.1-0.1-0.2-0.1-0.4,0
			c0-0.2,0-0.3,0-0.5c0-0.5-0.7-0.5-0.7,0c0,0.7,0,1.4,0,2.1c-0.1,0-0.2-0.1-0.3-0.1C26.5,56,26.4,54.9,27,54c0.3-0.4-0.4-1-0.7-0.6
			l0,0c-0.2-0.1-0.5-0.1-0.6,0.2c-0.3,0.8-0.5,1.7-0.5,2.6c0-0.1-0.1-0.1-0.1-0.2c0-0.7-0.1-1.4-0.1-2.1h0.1c0.5,0,0.6-0.8,0.1-0.9
			c0,0,0,0-0.1,0c0.2-0.6,0.5-1.1,0.8-1.7c0.2-0.4-0.3-0.7-0.6-0.3c0,0,0,0,0,0.1l0,0c-0.7,0.1-0.9,1.1-1,1.8
			c-0.1,0.1-0.1,0.2-0.2,0.3c-0.2,0.2-0.4,0.4-0.5,0.6c0-0.2,0-0.4,0.1-0.7c0.1-0.1,0.2-0.2,0.4-0.4c0.3-0.2,0.1-0.7-0.2-0.7
			c0.1-0.3,0.2-0.6,0.4-0.6c0.5,0,0.5-0.7,0-0.8c-0.2,0-0.3,0-0.4,0c0.3-0.6,0.7-1.1,1-1.2c0.3,0,0.4-0.3,0.4-0.6
			c0.9-0.4,2-0.7,3.1-0.7c0.1,0,0.1-0.1,0-0.2c-2.7-1.7-5.4,0.3-7,2.5c-0.4,0.5-0.7,1.1-0.9,1.6c-1.5,2.1-0.8,6.1,0,8
			C21.6,62.4,22.7,64,24.7,64.3z M28.8,60.1c0,0,0,0.1-0.1,0.1c-0.1-0.1-0.2-0.2-0.2-0.3C28.6,60,28.7,60.1,28.8,60.1z M27.6,58.4
			C27.6,58.5,27.6,58.5,27.6,58.4C27.6,58.5,27.6,58.5,27.6,58.4C27.6,58.5,27.6,58.4,27.6,58.4z M27.1,61.6c-0.1,0-0.1,0-0.2,0.1
			c-0.1-0.1-0.1-0.2-0.2-0.3C26.9,61.5,27,61.5,27.1,61.6z M25.6,58.9c0,0.2,0.1,0.4,0.1,0.6c-0.1-0.3-0.2-0.6-0.3-0.9
			C25.5,58.7,25.5,58.8,25.6,58.9z M21.7,57.4c0,0.9,0.4,1.7,0.8,2.5c0-0.1-0.1-0.1-0.1-0.2c-0.6-1-0.8-2-0.8-3.1
			C21.6,56.8,21.7,57.1,21.7,57.4z"/>
		<path class="st2" d="M135.4,44.5c0.4,0.3,0.7-0.2,0.7-0.5c-0.2-1.5-1.3-2.4-0.5-4.1c0.8-1.7,2.6-1.7,4-1c1.7,0.9,2.9,2.8,4.6,3.8
			c0.4,0.3,0.8-0.4,0.4-0.7c-1.5-1.2-2.2-3.1-3.8-4.2c-1.4-0.9-2.7-1.3-4.3-0.8C133.4,38,132.7,42.6,135.4,44.5z"/>
		<path class="st2" d="M143.6,44.8c-0.2-0.1-0.5,0-0.5,0.3c0,0.6,0.4,1.8,0.7,3h-0.1c-0.1-0.2-0.2-0.5-0.3-0.7s-0.3-0.3-0.5-0.1
			c-0.2-0.2-0.3-0.5-0.5-0.7c-0.1-0.2-0.3-0.2-0.4-0.1c-0.2-0.1-0.5,0.1-0.4,0.4c0.1,0.7,0.3,1.4,0.6,2c-0.5-0.7-1-1.5-1.3-2.3
			c-0.1-0.3-0.5-0.1-0.5,0.2c0.1,0.4,0.2,0.9,0.4,1.3c-0.5-0.7-0.9-1.4-1.2-2.2c-0.1-0.4-0.8-0.4-0.8,0.1c0,0.1,0,0.3,0,0.4
			c-0.2-0.4-0.3-0.8-0.4-1.2c0-0.2-0.3-0.2-0.4,0c0,0.1,0,0.1-0.1,0.2c-0.2-1.1-0.4-2.3-0.6-3.4c-0.1-0.4-0.7-0.4-0.8,0
			c-0.5,2.7,0.4,5.7,1.9,7.9c1,1.5,3.4,3.7,5.4,3.3C147.4,52.5,145.6,46.1,143.6,44.8z"/>
		<path class="st2" d="M143.9,56.8c-2.6-0.6-4.6-1.3-6.5-3.3c-1.7-1.8-2.9-4-4.1-6.2c-0.1-0.1-0.3-0.1-0.3,0.1
			c0.3,4.2,5.9,12.1,10.9,10.7C144.5,57.9,144.6,57,143.9,56.8z"/>
		<path class="st2" d="M155.7,82.9c-0.1-0.3-0.5-0.5-0.8-0.4c-0.4,0-0.8,0.1-1.2,0.2c-0.3,0.1-0.5,0.4-0.5,0.7
			c-0.1,0.5-0.2,1-0.3,1.6c-0.2,0.6,0.7,1,1,0.4c0.2-0.4,0.3-0.7,0.4-0.9c0.8,1.1,0.4,4,0.3,5.1c-0.3,1.8-2.3,3.3-2.7,0.7
			c-0.3-2.2-1.1-4.1-0.1-6.3c2.1-5,1.1-9.7-1.2-14.6c-0.1-0.2-0.3,0-0.3,0.1c0.5,2.7,1.1,5.5,1.3,8.3s-1.2,4.7-2,7.2
			c-0.6,1.9,0.5,4.6,0.7,6.5c0.1,1,0.1,2,1.1,2.6c1.8,1.1,3.8-1,4.4-2.5C156.9,88.8,157,85.6,155.7,82.9z"/>
		<path class="st3" d="M72.6,152.2C72.6,152.2,72.6,152.3,72.6,152.2C72.7,152.3,72.7,152.2,72.6,152.2z"/>
		<path class="st2" d="M62.5,97c0.1-0.2,0.2-0.3,0.3-0.5c0.2-0.3-0.2-0.5-0.4-0.4s-0.8,0-1-0.3c-0.4-0.3-0.5-0.8-0.6-1.3
			c-0.1-0.4-0.2-0.9-0.1-1.3c0,0,0.2-0.3,0.1-0.2c0.1-0.1,0.4-0.1,0.5-0.2c0.2-0.1,0.3-0.3,0.3-0.5c0.7-0.1,1.4,0,1.9,0.1
			c0.4,0.1,0.6-0.5,0.2-0.7c-0.9-0.3-1.7-0.9-2.7-0.9c-1-0.1-1.9,0.5-2.6,1.2c-0.3,0.3-0.6,0.7-0.7,1.1c-0.5,0.6-0.5,1.4-0.3,2.1
			c0,0.3,0,0.5,0.1,0.8c0.2,1.4,0.9,2.8,2.1,3.6c0.9,0.6,2.7,0.6,3.3-0.4c0.6-0.2,1.1-0.6,1.2-1.1c0.7-0.3,1.4-0.9,1.8-1.8
			c0.2-0.3-0.2-0.6-0.5-0.4C64.7,96.8,63.6,97,62.5,97z M59.1,94.4L59.1,94.4C59.1,94.4,59.1,94.5,59.1,94.4
			C59.1,94.5,59.1,94.5,59.1,94.4z"/>
		<path class="st2" d="M106.7,68c0-0.3-0.3-0.4-0.5-0.2c-1,0.9-1.4,1.9-2.8,2.4s-2.9,0.5-4.5,0.3v-0.1c2,0.1,4-0.4,4.7-2
			c0.1-0.3-0.2-0.5-0.4-0.3c-0.6,0.5-2,0.7-3.2,0.6c0.4-0.1,0.8-0.2,1.1-0.4c0.3-0.1,0.2-0.5-0.1-0.6c-1.1-0.5-2.4-0.3-3.5-0.7
			c-0.9-0.4-3-1.3-2.8-2.6c0.1-0.5,1.4-0.9,1.2-1.5c0.3,0,0.6-0.1,0.9-0.1c0.3-0.1,0.3-0.5,0-0.6c-2.5-0.6-5-0.6-6.3,1.9
			c-0.4,0.8-0.4,1.6-0.2,2.3c-0.7-1.6-0.2-3.5,0.1-5.1c0-0.3-0.2-0.8-0.6-0.6c-3.3,1.4-1.7,6.6,0.2,8.6c3.5,3.5,9.7,4,14.2,3
			c0.3-0.1,0.3-0.4,0.2-0.6C106,71,106.9,69.9,106.7,68z M95.9,69.9c-1.3-0.3-2.3-1-3.1-2c0.9,0.9,2.1,1.6,3.3,2.1
			C96,69.9,96,69.9,95.9,69.9z"/>
		<path class="st2" d="M91.8,71.3c-0.6-0.3-1.1-0.8-1.5-1.3c-0.4-0.4-0.6-0.8-1.1-1c-0.2-0.1-0.4,0.1-0.5,0.3
			c-0.4,1.3,1.2,2.6,2.1,3.2c1.2,0.8,2.7,1.2,4,0.7c0.2-0.1,0.4-0.5,0.1-0.6C93.8,72.1,92.7,71.8,91.8,71.3z"/>
		<path class="st2" d="M135.4,124.4c-2,2.2-3.1,4.8-5,7c-2.2,2.6-6.8,4.3-9.9,4.3c-2.2,0-4.7,1.6-6.5,2.8c-1.5,1-4.2,5-6.1,2.7
			c-0.1-0.1-0.2,0-0.2,0.1c0,1.3,1,2,2.3,1.6c3-0.8,5-3.5,7.9-4.8c2.4-1.1,3.8,0,5.9-0.7c1.7-0.6,3-1.7,4.6-2.5
			c4.2-2.1,5.6-6,7.6-10C136.2,124.5,135.7,124,135.4,124.4z"/>
		<path class="st2" d="M126.2,128.6c-0.9,0.7-2,1.2-3.1,1.5c-0.8,0.2-2.1,0.4-2.4,1.3c-0.1,0.2,0.1,0.4,0.2,0.4
			c0.5,0.2,0.9-0.1,1.4-0.2c0.7-0.2,1.3-0.4,2-0.6c1.2-0.4,2-1,2.3-2.2C126.7,128.6,126.4,128.5,126.2,128.6z"/>
		<path class="st2" d="M15.1,87.9c-0.2-0.1-0.4,0.1-0.5,0.3c-0.5,1.6-1.6,3.9-0.2,5.3c0.4,0.4,0.9-0.1,0.7-0.5
			c-0.1-0.6-0.2-1.1-0.3-1.7c-0.1-1.3,0.4-1.3,1.4,0.2c0.1,0.8,0,1.6,0.1,2.4c0.1,0.9,0.1,1.7,0.1,2.6c0,2.5-2.7-0.8-3.1-1.4
			c-1.5-2.5-0.5-4.6-0.8-7.3c-0.2-1.3-0.5-2.3-1.1-3.4c-1.3-2.5-0.7-4.9-0.1-7.4c0.1-0.3-0.3-0.4-0.4-0.1c-0.6,1.6-1.8,4-1.2,5.8
			s1.6,3.4,1.8,5.3c0.2,1.1-0.6,2.6-0.4,3.8c0.4,2.6,1.7,6.8,4.7,7.6C19.1,100.1,18.6,88.7,15.1,87.9z"/>
		<path class="st2" d="M59.1,35.7c0.4-0.1,0.4-0.7,0-0.8c-3.1-1-6.4,1.1-8.5,3.1c-1.1,1-2.1,2.4-2.7,3.7c-0.7,1.6-1.3,4.4-3.4,4.6
			c-0.1,0-0.2,0.2,0,0.3c2.3,0.5,3.4-1.5,4.1-3.4c0.8-1.9,2-3.4,3.5-4.8C54.2,36.4,56.5,36.4,59.1,35.7z"/>
		<path class="st2" d="M74.8,11.1c3.1-0.3,5.7-1.2,8.9-1c0.1,0,0.3,0,0.4,0c-0.8,0.3-1.6,0.7-2.2,1.4c-0.3,0.3,0.1,0.8,0.5,0.5
			c2.3-2,6.2-1,8.9-0.5c1.1,0.2,2,0.3,2.8,0.2c0.6,0.2,1.2,0.4,1.9,0.7c2.2,1,4.3,1.4,6.7,1.6c4,0.3,7.9,1.4,11.9,2.2
			c0.8,0.2,1.1-0.9,0.3-1.2c-3-1-6.4-2-9.6-2.4c-2.1-0.2-4.2-0.3-6.2-0.8c-0.9-0.2-1.7-0.5-2.5-0.9c0.2-0.1,0.1-0.4-0.1-0.5
			c-0.4-0.1-0.7-0.1-1.1-0.1c-0.8-0.4-1.5-0.7-2.3-1c-2.9-1.2-6.2-1-9.3-1.1C80.6,8,77.3,8,74.6,10C74.2,10.4,74.3,11.2,74.8,11.1z"
			/>
		<path class="st2" d="M93,153.6c-3.5-0.9-6.4-2.7-10.1-3.1c-4.2-0.5-9.2,0.2-13.1-1.7c-0.3-0.1-0.6,0.2-0.4,0.5
			c2.9,2.6,6.9,2.1,10.6,2.3c2.9,0.2,5.8,0.4,8.2,2c1.5,0.9,3.1,1,4.7,0.7C93.3,154.2,93.3,153.7,93,153.6z"/>
		<path class="st2" d="M81.2,154.6c-3.7-1.3-7.1-2.1-11-2.5c-2.9-0.3-6.2-0.1-8.9-1.3c-0.3-0.1-3.5-1.7-1.4-2.6
			c1.9-0.8,3.8-0.2,5.1,1.2c-0.7,0-1.3,0.1-2,0.1c-0.2,0-0.2,0.2-0.1,0.3c0.8,1,2.1,0.7,3.3,0.7c0.5,0,0.8-0.5,0.5-0.9
			c-1.4-2.5-3.3-2.9-6-2.6c-1.6,0.2-3.8,1-2.5,2.9c1.6,2.2,5.7,2.7,8.1,3c2.9,0.3,5.7,0.4,8.6,0.9c2.2,0.4,4.2,1,6.5,0.9
			C81.3,154.8,81.3,154.6,81.2,154.6z"/>
		<path class="st2" d="M52,121.3c0.5,0.5,1.1-0.2,0.7-0.7c-1.6-2-3.7-3.3-6.1-4.1c-2.1-0.7-3.8-1.1-5.1-3.1
			c-0.8-1.2-1.2-2.6-1.9-3.8c-0.1-0.2-0.4-0.1-0.4,0.2c0.5,2.4,1.3,4.8,3.4,6.3c1.1,0.8,2.5,1.1,3.7,1.5
			C48.7,118.2,50.4,119.6,52,121.3z"/>
		<path class="st2" d="M63.6,121.3c-1-2.1-5.3-5.6-7.7-4.2c-2.1,1.2,1.2,3.9,2.4,4.1c0.7,0.1,1-0.9,0.3-1.1
			c-0.8-0.2-3.3-2.5-1.1-2.1c1.2,0.2,2.4,1.2,3.3,1.9c0.5,0.4,4,4.3,0.7,4.5c-1.1,0-2.5-0.6-3.6-1c-3-1-6.2-1.1-8.8-3.2
			c-1.1-0.9-1.9-1.5-3.4-1.5c-0.2,0-0.3,0.3-0.1,0.4c2.5,1,4.3,3.1,6.9,4.1c2.5,0.9,5.4,1.6,8,2.3C63.8,126.4,64.9,123.9,63.6,121.3
			z"/>
		<path class="st2" d="M49.4,71.5c0.1-0.2-0.1-0.5-0.3-0.5c-0.9,0-1.7,0.1-2.5-0.5c-0.8-0.7-1.2-1.8-1.3-2.8c-0.2-2,1.5-4.6,3.6-4.8
			c0.4,0,0.4-0.6,0-0.7c-3-0.3-5,3.1-4.8,5.9C44.3,70.2,47.4,74.2,49.4,71.5z"/>
	</g>
</g>
</svg>
